<?xml version="1.0" standalone="no"?><!DOCTYPE svg PUBLIC "-//W3C//DTD SVG 1.1//EN" "http://www.w3.org/Graphics/SVG/1.1/DTD/svg11.dtd"><svg t="1587652113085" class="icon" viewBox="0 0 1536 1024" version="1.1" xmlns="http://www.w3.org/2000/svg" p-id="16399" xmlns:xlink="http://www.w3.org/1999/xlink" width="300" height="200"><defs><style type="text/css"></style></defs><path d="M576 716.8l64 64V518.4c0-25.6 19.2-51.2 44.8-51.2 12.8 0 25.6 6.4 38.4 12.8 6.4 6.4 12.8 25.6 12.8 38.4v384c0 25.6-19.2 51.2-51.2 51.2-12.8 0-25.6-6.4-38.4-12.8L512 793.6c-19.2-19.2-19.2-51.2 0-70.4 0-6.4 19.2-19.2 32-19.2s25.6 6.4 32 12.8z m275.2-224c6.4-6.4 19.2-12.8 38.4-12.8 12.8 0 25.6 6.4 38.4 19.2l140.8 140.8c19.2 19.2 19.2 51.2 0 70.4-6.4 6.4-19.2 12.8-38.4 12.8-12.8 0-25.6-6.4-38.4-12.8l-64-64v256c0 25.6-19.2 51.2-51.2 51.2-25.6 0-51.2-19.2-51.2-51.2V524.8c6.4-12.8 6.4-25.6 25.6-32z m0 0" fill="#1296db" p-id="16400"></path><path d="M544 704h128v83.2h-128V704z m358.4-64h128v83.2h-128V640z m0 0" fill="#1296db" p-id="16401"></path><path d="M441.6 550.4c6.4-32 19.2-51.2 38.4-70.4 6.4-19.2 19.2-25.6 32-38.4 25.6-19.2 57.6-25.6 96-25.6 12.8-32 32-64 57.6-83.2 57.6-57.6 128-96 211.2-96 108.8 0 198.4 57.6 249.6 140.8 12.8 12.8 19.2 38.4 25.6 57.6 25.6 19.2 57.6 51.2 70.4 76.8 19.2 38.4 38.4 83.2 38.4 128 0 140.8-115.2 256-256 256h-25.6c51.2 38.4 115.2 64 179.2 64 166.4 0 288-128 288-288 0-134.4-96-249.6-224-281.6-19.2-179.2-166.4-320-352-320-147.2 0-268.8 83.2-326.4 211.2H512c-108.8 0-192 70.4-211.2 172.8-121.6 19.2-211.2 128-211.2 249.6 0 140.8 115.2 256 256 256 64 0 121.6-19.2 166.4-64-12.8 0-19.2 6.4-38.4 6.4-102.4 0-179.2-76.8-179.2-179.2 0-38.4 12.8-76.8 38.4-108.8 32-38.4 70.4-57.6 108.8-64z m0 0" fill="#1296db" p-id="16402"></path></svg>