<?xml version="1.0" encoding="utf-8"?>
<!-- Generator: Adobe Illustrator 19.0.0, SVG Export Plug-In . SVG Version: 6.00 Build 0)  -->
<svg version="1.0" id="Layer_1" xmlns="http://www.w3.org/2000/svg" xmlns:xlink="http://www.w3.org/1999/xlink" x="0px" y="0px"
	 width="642.8px" height="423px" viewBox="0 0 642.8 423" enable-background="new 0 0 642.8 423" xml:space="preserve">
<g id="XMLID_200_">
	<path id="XMLID_215_" fill="#83A8C9" d="M628,286.5c-0.2,0-0.3,0-0.5-0.1l-102-59.6c-0.5-0.3-0.6-0.9-0.4-1.4
		c0.3-0.5,0.9-0.6,1.4-0.4l102,59.6c0.5,0.3,0.6,0.9,0.4,1.4C628.7,286.3,628.3,286.5,628,286.5z"/>
</g>
<g id="XMLID_199_">
	<path id="XMLID_214_" fill="#83A8C9" d="M575,316.5c-0.2,0-0.3,0-0.5-0.1l-108-63c-0.5-0.3-0.6-0.9-0.4-1.4
		c0.3-0.5,0.9-0.6,1.4-0.4l108,63c0.5,0.3,0.6,0.9,0.4,1.4C575.7,316.3,575.3,316.5,575,316.5z"/>
</g>
<g id="XMLID_198_">
	<path id="XMLID_213_" fill="#83A8C9" d="M469,290.5c-0.3,0-0.7-0.2-0.9-0.5c-0.3-0.5-0.1-1.1,0.4-1.4l108-63
		c0.5-0.3,1.1-0.1,1.4,0.4c0.3,0.5,0.1,1.1-0.4,1.4l-108,63C469.3,290.5,469.2,290.5,469,290.5z"/>
</g>
<g id="XMLID_197_">
	<path id="XMLID_212_" fill="#83A8C9" d="M526,316.5c-0.3,0-0.7-0.2-0.9-0.5c-0.3-0.5-0.1-1.1,0.4-1.4l102-59.5
		c0.5-0.3,1.1-0.1,1.4,0.4c0.3,0.5,0.1,1.1-0.4,1.4l-102,59.5C526.3,316.5,526.2,316.5,526,316.5z"/>
</g>
<g id="XMLID_80_">
	<g id="XMLID_79_" enable-background="new    ">
		<defs>
			<polygon id="XMLID_461_" enable-background="new    " points="494.9,271.5 550.8,239 607.1,271.5 551.2,304 			"/>
		</defs>
		<clipPath id="XMLID_307_">
			<use xlink:href="#XMLID_461_"  overflow="visible"/>
		</clipPath>
		<g id="XMLID_89_" clip-path="url(#XMLID_307_)">
			<g id="XMLID_106_">
				<path id="XMLID_196_" fill="#FFFFFF" d="M503.4,271.5l47.5-27.6l47.8,27.6l-47.5,27.6L503.4,271.5 M605,270.3l-52-30
					c-0.6-0.3-1.3-0.5-2.1-0.5c-0.8,0-1.6,0.2-2.1,0.5L497,270.3c-0.6,0.3-0.9,0.8-0.9,1.2c0,0.5,0.3,0.9,0.9,1.2l52,30
					c0.6,0.3,1.3,0.5,2.1,0.5c0.8,0,1.6-0.2,2.1-0.5l51.7-30.1c0.6-0.3,0.9-0.8,0.9-1.2C605.9,271.1,605.6,270.6,605,270.3"/>
			</g>
		</g>
	</g>
</g>
<g id="XMLID_14_">
	<path id="XMLID_210_" fill="#83A8C9" d="M317,286.5c-0.2,0-0.3,0-0.5-0.1l-102-59.6c-0.5-0.3-0.6-0.9-0.4-1.4
		c0.3-0.5,0.9-0.6,1.4-0.4l102,59.6c0.5,0.3,0.6,0.9,0.4,1.4C317.7,286.3,317.3,286.5,317,286.5z"/>
</g>
<g id="XMLID_19_">
	<path id="XMLID_209_" fill="#83A8C9" d="M264,316.5c-0.2,0-0.3,0-0.5-0.1l-108-63c-0.5-0.3-0.6-0.9-0.4-1.4
		c0.3-0.5,0.9-0.6,1.4-0.4l108,63c0.5,0.3,0.6,0.9,0.4,1.4C264.7,316.3,264.3,316.5,264,316.5z"/>
</g>
<g id="XMLID_23_">
	<path id="XMLID_205_" fill="#83A8C9" d="M158,290.5c-0.3,0-0.7-0.2-0.9-0.5c-0.3-0.5-0.1-1.1,0.4-1.4l108-63
		c0.5-0.3,1.1-0.1,1.4,0.4c0.3,0.5,0.1,1.1-0.4,1.4l-108,63C158.3,290.5,158.2,290.5,158,290.5z"/>
</g>
<g id="XMLID_21_">
	<path id="XMLID_202_" fill="#83A8C9" d="M215,316.5c-0.3,0-0.7-0.2-0.9-0.5c-0.3-0.5-0.1-1.1,0.4-1.4l102-59.5
		c0.5-0.3,1.1-0.1,1.4,0.4c0.3,0.5,0.1,1.1-0.4,1.4l-102,59.5C215.3,316.5,215.2,316.5,215,316.5z"/>
</g>
<g id="XMLID_69_">
	<g id="XMLID_8_" enable-background="new    ">
		<defs>
			<polygon id="XMLID_444_" enable-background="new    " points="491.3,256.5 547.1,224.1 603.3,256.5 547.5,289 			"/>
		</defs>
		<clipPath id="XMLID_308_">
			<use xlink:href="#XMLID_444_"  overflow="visible"/>
		</clipPath>
		<g id="XMLID_84_" clip-path="url(#XMLID_308_)">
			<g id="XMLID_101_">
				<path id="XMLID_195_" fill="#83A8C9" d="M494.1,256.5l53-30.8l53.4,30.8l-53,30.8L494.1,256.5 M602.6,256.1l-54.8-31.6
					c-0.2-0.1-0.4-0.2-0.7-0.2c-0.3,0-0.5,0.1-0.7,0.2L492,256.1c-0.2,0.1-0.3,0.3-0.3,0.4c0,0.2,0.1,0.3,0.3,0.4l54.8,31.6
					c0.2,0.1,0.4,0.2,0.7,0.2c0.3,0,0.5-0.1,0.7-0.2l54.4-31.6c0.2-0.1,0.3-0.3,0.3-0.4C602.9,256.4,602.8,256.2,602.6,256.1"/>
			</g>
		</g>
	</g>
</g>
<g id="XMLID_3_">
	<g id="XMLID_10_" enable-background="new    ">
		<defs>
			<polygon id="XMLID_435_" enable-background="new    " points="459.3,121.5 547,70.5 635.4,121.5 547.6,172.5 			"/>
		</defs>
		<clipPath id="XMLID_309_">
			<use xlink:href="#XMLID_435_"  overflow="visible"/>
		</clipPath>
		<g id="XMLID_77_" clip-path="url(#XMLID_309_)">
			<g id="XMLID_96_">
				<path id="XMLID_194_" fill="#83A8C9" d="M462.1,121.5l85-49.4l85.5,49.4l-85,49.4L462.1,121.5 M634.7,121.1l-86.9-50.2
					c-0.2-0.1-0.4-0.2-0.7-0.2c-0.3,0-0.5,0.1-0.7,0.2L460,121.1c-0.2,0.1-0.3,0.3-0.3,0.4c0,0.2,0.1,0.3,0.3,0.4l86.9,50.2
					c0.2,0.1,0.4,0.2,0.7,0.2c0.3,0,0.5-0.1,0.7-0.2l86.4-50.2c0.2-0.1,0.3-0.3,0.3-0.4C635,121.4,634.9,121.2,634.7,121.1"/>
			</g>
		</g>
	</g>
</g>
<g id="XMLID_9_">
	<g id="XMLID_12_" enable-background="new    ">
		<defs>
			<polygon id="XMLID_426_" enable-background="new    " points="463.6,136.5 547,88 631.1,136.5 547.6,185 			"/>
		</defs>
		<clipPath id="XMLID_310_">
			<use xlink:href="#XMLID_426_"  overflow="visible"/>
		</clipPath>
		<g id="XMLID_72_" clip-path="url(#XMLID_310_)">
			<g id="XMLID_91_">
				<path id="XMLID_193_" fill="#83A8C9" d="M466.4,136.5l80.6-46.9l81.2,46.9l-80.6,46.9L466.4,136.5 M630.3,136.1l-82.6-47.7
					c-0.2-0.1-0.4-0.2-0.7-0.2c-0.3,0-0.5,0.1-0.7,0.2l-82.1,47.7c-0.2,0.1-0.3,0.3-0.3,0.4c0,0.2,0.1,0.3,0.3,0.4l82.6,47.7
					c0.2,0.1,0.4,0.2,0.7,0.2c0.3,0,0.5-0.1,0.7-0.2l82.1-47.7c0.2-0.1,0.3-0.3,0.3-0.4C630.6,136.4,630.5,136.2,630.3,136.1"/>
			</g>
		</g>
	</g>
</g>
<g id="XMLID_11_">
	<g id="XMLID_15_" enable-background="new    ">
		<defs>
			<polygon id="XMLID_417_" enable-background="new    " points="467.7,151.5 547.1,105.4 626.9,151.5 547.6,197.6 			"/>
		</defs>
		<clipPath id="XMLID_311_">
			<use xlink:href="#XMLID_417_"  overflow="visible"/>
		</clipPath>
		<g id="XMLID_59_" clip-path="url(#XMLID_311_)">
			<g id="XMLID_85_">
				<path id="XMLID_192_" fill="#83A8C9" d="M470.5,151.5l76.5-44.5l77,44.5L547.6,196L470.5,151.5 M626.2,151.1l-78.5-45.3
					c-0.2-0.1-0.4-0.2-0.7-0.2c-0.3,0-0.5,0.1-0.7,0.2l-78,45.3c-0.2,0.1-0.3,0.3-0.3,0.4c0,0.2,0.1,0.3,0.3,0.4l78.5,45.3
					c0.2,0.1,0.4,0.2,0.7,0.2c0.3,0,0.5-0.1,0.7-0.2l78-45.3c0.2-0.1,0.3-0.3,0.3-0.4C626.5,151.4,626.4,151.2,626.2,151.1"/>
			</g>
		</g>
	</g>
</g>
<g id="XMLID_13_">
	<g id="XMLID_20_" enable-background="new    ">
		<defs>
			<polygon id="XMLID_408_" enable-background="new    " points="471.6,166.5 547.1,122.7 623,166.5 547.6,210.4 			"/>
		</defs>
		<clipPath id="XMLID_312_">
			<use xlink:href="#XMLID_408_"  overflow="visible"/>
		</clipPath>
		<g id="XMLID_57_" clip-path="url(#XMLID_312_)">
			<g id="XMLID_78_">
				<path id="XMLID_191_" fill="#83A8C9" d="M474.4,166.5l72.6-42.2l73.1,42.2l-72.6,42.2L474.4,166.5 M622.3,166.1l-74.5-43
					c-0.2-0.1-0.4-0.2-0.7-0.2c-0.3,0-0.5,0.1-0.7,0.2l-74.1,43c-0.2,0.1-0.3,0.3-0.3,0.4c0,0.2,0.1,0.3,0.3,0.4l74.5,43
					c0.2,0.1,0.4,0.2,0.7,0.2c0.3,0,0.5-0.1,0.7-0.2l74.1-43c0.2-0.1,0.3-0.3,0.3-0.4C622.6,166.4,622.5,166.2,622.3,166.1"/>
			</g>
		</g>
	</g>
</g>
<g id="XMLID_17_">
	<g id="XMLID_24_" enable-background="new    ">
		<defs>
			<polygon id="XMLID_399_" enable-background="new    " points="475.3,181.5 547.1,139.8 619.3,181.5 547.6,223.2 			"/>
		</defs>
		<clipPath id="XMLID_313_">
			<use xlink:href="#XMLID_399_"  overflow="visible"/>
		</clipPath>
		<g id="XMLID_54_" clip-path="url(#XMLID_313_)">
			<g id="XMLID_73_">
				<path id="XMLID_190_" fill="#83A8C9" d="M478.2,181.5l68.9-40.1l69.4,40.1l-68.9,40.1L478.2,181.5 M618.6,181.1l-70.8-40.9
					c-0.2-0.1-0.4-0.2-0.7-0.2c-0.3,0-0.5,0.1-0.7,0.2L476,181.1c-0.2,0.1-0.3,0.3-0.3,0.4c0,0.2,0.1,0.3,0.3,0.4l70.8,40.9
					c0.2,0.1,0.4,0.2,0.7,0.2c0.3,0,0.5-0.1,0.7-0.2l70.4-40.9c0.2-0.1,0.3-0.3,0.3-0.4C618.9,181.4,618.8,181.2,618.6,181.1"/>
			</g>
		</g>
	</g>
</g>
<g id="XMLID_22_">
	<g id="XMLID_42_" enable-background="new    ">
		<defs>
			<polygon id="XMLID_390_" enable-background="new    " points="478.9,196.5 547.1,156.9 615.8,196.5 547.5,236.2 			"/>
		</defs>
		<clipPath id="XMLID_314_">
			<use xlink:href="#XMLID_390_"  overflow="visible"/>
		</clipPath>
		<g id="XMLID_51_" clip-path="url(#XMLID_314_)">
			<g id="XMLID_67_">
				<path id="XMLID_189_" fill="#83A8C9" d="M481.7,196.5l65.4-38l65.9,38l-65.4,38L481.7,196.5 M615.1,196.1l-67.3-38.8
					c-0.2-0.1-0.4-0.2-0.7-0.2c-0.3,0-0.5,0.1-0.7,0.2l-66.8,38.8c-0.2,0.1-0.3,0.3-0.3,0.4c0,0.2,0.1,0.3,0.3,0.4l67.3,38.8
					c0.2,0.1,0.4,0.2,0.7,0.2c0.3,0,0.5-0.1,0.7-0.2l66.8-38.8c0.2-0.1,0.3-0.3,0.3-0.4C615.4,196.4,615.3,196.2,615.1,196.1"/>
			</g>
		</g>
	</g>
</g>
<g id="XMLID_28_">
	<g id="XMLID_45_" enable-background="new    ">
		<defs>
			<polygon id="XMLID_381_" enable-background="new    " points="482.2,211.5 547.1,173.8 612.4,211.5 547.5,249.2 			"/>
		</defs>
		<clipPath id="XMLID_315_">
			<use xlink:href="#XMLID_381_"  overflow="visible"/>
		</clipPath>
		<g id="XMLID_47_" clip-path="url(#XMLID_315_)">
			<g id="XMLID_63_">
				<path id="XMLID_188_" fill="#83A8C9" d="M485,211.5l62.1-36.1l62.5,36.1l-62.1,36.1L485,211.5 M611.7,211.1l-63.9-36.9
					c-0.2-0.1-0.4-0.2-0.7-0.2c-0.3,0-0.5,0.1-0.7,0.2l-63.5,36.9c-0.2,0.1-0.3,0.3-0.3,0.4c0,0.2,0.1,0.3,0.3,0.4l63.9,36.9
					c0.2,0.1,0.4,0.2,0.7,0.2c0.3,0,0.5-0.1,0.7-0.2l63.5-36.9c0.2-0.1,0.3-0.3,0.3-0.4C612,211.4,611.9,211.2,611.7,211.1"/>
			</g>
		</g>
	</g>
</g>
<g id="XMLID_43_">
	<g id="XMLID_36_" enable-background="new    ">
		<defs>
			<polygon id="XMLID_372_" enable-background="new    " points="485.4,226.5 547.1,190.6 609.3,226.5 547.5,262.4 			"/>
		</defs>
		<clipPath id="XMLID_316_">
			<use xlink:href="#XMLID_372_"  overflow="visible"/>
		</clipPath>
		<g id="XMLID_41_" clip-path="url(#XMLID_316_)">
			<g id="XMLID_58_">
				<path id="XMLID_187_" fill="#83A8C9" d="M488.2,226.5l58.9-34.2l59.3,34.2l-58.9,34.2L488.2,226.5 M608.5,226.1l-60.7-35.1
					c-0.2-0.1-0.4-0.2-0.7-0.2c-0.3,0-0.5,0.1-0.7,0.2l-60.3,35.1c-0.2,0.1-0.3,0.3-0.3,0.4c0,0.2,0.1,0.3,0.3,0.4l60.7,35.1
					c0.2,0.1,0.4,0.2,0.7,0.2c0.3,0,0.5-0.1,0.7-0.2l60.3-35.1c0.2-0.1,0.3-0.3,0.3-0.4C608.8,226.4,608.7,226.2,608.5,226.1"/>
			</g>
		</g>
	</g>
</g>
<g id="XMLID_52_">
	<g id="XMLID_7_" enable-background="new    ">
		<defs>
			<polygon id="XMLID_363_" enable-background="new    " points="488.4,241.5 547.1,207.4 606.2,241.5 547.5,275.6 			"/>
		</defs>
		<clipPath id="XMLID_317_">
			<use xlink:href="#XMLID_363_"  overflow="visible"/>
		</clipPath>
		<g id="XMLID_31_" clip-path="url(#XMLID_317_)">
			<g id="XMLID_50_">
				<path id="XMLID_186_" fill="#83A8C9" d="M491.3,241.5l55.9-32.5l56.3,32.5L547.5,274L491.3,241.5 M605.5,241.1l-57.7-33.3
					c-0.2-0.1-0.4-0.2-0.7-0.2c-0.3,0-0.5,0.1-0.7,0.2l-57.3,33.3c-0.2,0.1-0.3,0.3-0.3,0.4c0,0.2,0.1,0.3,0.3,0.4l57.7,33.3
					c0.2,0.1,0.4,0.2,0.7,0.2c0.3,0,0.5-0.1,0.7-0.2l57.3-33.3c0.2-0.1,0.3-0.3,0.3-0.4C605.8,241.4,605.7,241.2,605.5,241.1"/>
			</g>
		</g>
	</g>
</g>
<g id="XMLID_6_">
	<g id="XMLID_26_" enable-background="new    ">
		<defs>
			<polygon id="XMLID_354_" enable-background="new    " points="451.9,106.5 547,51.2 642.8,106.5 547.6,161.8 			"/>
		</defs>
		<clipPath id="XMLID_318_">
			<use xlink:href="#XMLID_354_"  overflow="visible"/>
		</clipPath>
		<g id="XMLID_27_" clip-path="url(#XMLID_318_)">
			<g id="XMLID_44_">
				<path id="XMLID_185_" fill="#FFFFFF" d="M460.4,106.5L547,56.1l87.3,50.4l-86.7,50.4L460.4,106.5 M640.7,105.3l-91.5-52.8
					c-1.2-0.7-3.1-0.7-4.2,0L454,105.3c-0.6,0.3-0.9,0.8-0.9,1.2c0,0.5,0.3,0.9,0.9,1.2l91.5,52.8c0.6,0.3,1.3,0.5,2.1,0.5
					c0.8,0,1.6-0.2,2.1-0.5l90.9-52.8c0.6-0.3,0.9-0.8,0.9-1.2C641.5,106.1,641.2,105.6,640.7,105.3"/>
			</g>
		</g>
	</g>
</g>
<g id="XMLID_30_">
	<g id="XMLID_5_" enable-background="new    ">
		<defs>
			<polygon id="XMLID_345_" enable-background="new    " points="183.9,271.5 239.8,239 296.1,271.5 240.2,304 			"/>
		</defs>
		<clipPath id="XMLID_319_">
			<use xlink:href="#XMLID_345_"  overflow="visible"/>
		</clipPath>
		<g id="XMLID_25_" clip-path="url(#XMLID_319_)">
			<g id="XMLID_37_">
				<path id="XMLID_184_" fill="#FFFFFF" d="M192.4,271.5l47.5-27.6l47.8,27.6l-47.5,27.6L192.4,271.5 M294,270.3l-52.1-30.1
					c-0.6-0.3-1.3-0.5-2.1-0.5c-0.8,0-1.6,0.2-2.1,0.5L186,270.3c-0.6,0.3-0.9,0.8-0.9,1.2c0,0.5,0.3,0.9,0.9,1.2l52.1,30.1
					c0.6,0.3,1.3,0.5,2.1,0.5c0.8,0,1.6-0.2,2.1-0.5l51.7-30.1c0.6-0.3,0.9-0.8,0.9-1.2C294.9,271.1,294.6,270.6,294,270.3"/>
			</g>
		</g>
	</g>
</g>
<g id="XMLID_4_">
	<g id="XMLID_16_" enable-background="new    ">
		<defs>
			<polygon id="XMLID_336_" enable-background="new    " points="144.5,106.5 239.7,51.2 335.5,106.5 240.3,161.8 			"/>
		</defs>
		<clipPath id="XMLID_320_">
			<use xlink:href="#XMLID_336_"  overflow="visible"/>
		</clipPath>
		<g id="XMLID_18_" clip-path="url(#XMLID_320_)">
			<g id="XMLID_32_">
				<path id="XMLID_2_" fill="#FFFFFF" d="M153,106.5l86.7-50.4l87.3,50.4l-86.7,50.4L153,106.5 M333.3,105.3l-91.5-52.8
					c-1.2-0.7-3.1-0.7-4.2,0l-90.9,52.8c-0.6,0.3-0.9,0.8-0.9,1.2c0,0.5,0.3,0.9,0.9,1.2l91.5,52.8c0.6,0.3,1.3,0.5,2.1,0.5
					c0.8,0,1.6-0.2,2.1-0.5l90.9-52.8c0.6-0.3,0.9-0.8,0.9-1.2C334.2,106.1,333.9,105.6,333.3,105.3"/>
			</g>
		</g>
	</g>
</g>
<g id="XMLID_1_">
	<path id="XMLID_172_" fill="#83A8C9" d="M8.7,111.5H2.3v-1.2l4.1-5.9h-4V103h6.2v1.2L4.4,110h4.2V111.5z"/>
	<path id="XMLID_174_" fill="#83A8C9" d="M17.7,107.2c0,1.4-0.4,2.5-1.1,3.3s-1.7,1.1-3,1.1s-2.3-0.4-3-1.1s-1.1-1.9-1.1-3.3
		s0.4-2.5,1.1-3.3s1.7-1.1,3-1.1s2.3,0.4,3,1.1S17.7,105.8,17.7,107.2z M11.5,107.2c0,1,0.2,1.7,0.5,2.2s0.9,0.7,1.6,0.7
		c1.4,0,2.2-1,2.2-2.9c0-1.9-0.7-2.9-2.2-2.9c-0.7,0-1.3,0.2-1.6,0.7S11.5,106.3,11.5,107.2z"/>
	<path id="XMLID_177_" fill="#83A8C9" d="M27.3,107.2c0,1.4-0.4,2.5-1.1,3.3s-1.7,1.1-3,1.1s-2.3-0.4-3-1.1s-1.1-1.9-1.1-3.3
		s0.4-2.5,1.1-3.3s1.7-1.1,3-1.1s2.3,0.4,3,1.1S27.3,105.8,27.3,107.2z M21,107.2c0,1,0.2,1.7,0.5,2.2s0.9,0.7,1.6,0.7
		c1.4,0,2.2-1,2.2-2.9c0-1.9-0.7-2.9-2.2-2.9c-0.7,0-1.3,0.2-1.6,0.7S21,106.3,21,107.2z"/>
	<path id="XMLID_180_" fill="#83A8C9" d="M32.7,111.5l-2.1-6.7h-0.1c0.1,1.4,0.1,2.3,0.1,2.7v4H29V103h2.5l2,6.6h0l2.2-6.6h2.5v8.6
		h-1.7v-4.1c0-0.2,0-0.4,0-0.7s0-0.9,0.1-2h-0.1l-2.2,6.7H32.7z"/>
	<path id="XMLID_182_" fill="#83A8C9" d="M47.3,111.5h-1.8v-5l0-0.8l0-0.9c-0.3,0.3-0.5,0.5-0.6,0.6l-1,0.8l-0.9-1.1l2.8-2.2h1.5
		V111.5z"/>
</g>
<g id="XMLID_207_">
	<path id="XMLID_147_" fill="#83A8C9" d="M197.9,363.2v3.3h-1.8V358h2.5c1.2,0,2,0.2,2.6,0.6s0.8,1.1,0.8,1.9c0,0.5-0.1,1-0.4,1.3
		s-0.7,0.7-1.2,0.9c1.3,1.9,2.1,3.2,2.5,3.7h-2l-2-3.3H197.9z M197.9,361.8h0.6c0.6,0,1-0.1,1.3-0.3s0.4-0.5,0.4-0.9
		c0-0.4-0.1-0.7-0.4-0.9s-0.7-0.3-1.3-0.3h-0.6V361.8z"/>
	<path id="XMLID_150_" fill="#83A8C9" d="M209.9,366.5l-0.6-2h-3.1l-0.6,2h-2l3-8.6h2.2l3,8.6H209.9z M208.9,363
		c-0.6-1.8-0.9-2.9-1-3.1s-0.1-0.4-0.2-0.6c-0.1,0.5-0.5,1.7-1.1,3.7H208.9z"/>
	<path id="XMLID_153_" fill="#83A8C9" d="M218.4,364.1c0,0.8-0.3,1.4-0.8,1.8s-1.3,0.7-2.3,0.7c-0.9,0-1.7-0.2-2.4-0.5v-1.7
		c0.6,0.3,1.1,0.4,1.5,0.5s0.8,0.2,1.1,0.2c0.4,0,0.7-0.1,0.9-0.2s0.3-0.4,0.3-0.7c0-0.2,0-0.3-0.1-0.4s-0.2-0.3-0.4-0.4
		s-0.6-0.3-1.1-0.6c-0.5-0.2-0.9-0.5-1.2-0.7s-0.5-0.5-0.6-0.8s-0.2-0.7-0.2-1.1c0-0.8,0.3-1.4,0.8-1.8s1.2-0.7,2.1-0.7
		c0.4,0,0.9,0.1,1.3,0.2s0.8,0.3,1.3,0.4l-0.6,1.4c-0.5-0.2-0.8-0.3-1.1-0.4s-0.6-0.1-0.9-0.1c-0.3,0-0.6,0.1-0.8,0.2
		s-0.3,0.4-0.3,0.6c0,0.2,0,0.3,0.1,0.4s0.2,0.2,0.4,0.3s0.5,0.3,1.2,0.6c0.8,0.4,1.3,0.8,1.6,1.2S218.4,363.6,218.4,364.1z"/>
	<path id="XMLID_155_" fill="#83A8C9" d="M223.6,366.5h-1.8v-7.1h-2.3V358h6.5v1.5h-2.3V366.5z"/>
	<path id="XMLID_157_" fill="#83A8C9" d="M232.2,366.5h-4.9V358h4.9v1.5h-3.1v1.9h2.9v1.5h-2.9v2.2h3.1V366.5z"/>
	<path id="XMLID_159_" fill="#83A8C9" d="M235.9,363.2v3.3h-1.8V358h2.5c1.2,0,2,0.2,2.6,0.6s0.8,1.1,0.8,1.9c0,0.5-0.1,1-0.4,1.3
		s-0.7,0.7-1.2,0.9c1.3,1.9,2.1,3.2,2.5,3.7h-2l-2-3.3H235.9z M235.9,361.8h0.6c0.6,0,1-0.1,1.3-0.3s0.4-0.5,0.4-0.9
		c0-0.4-0.1-0.7-0.4-0.9s-0.7-0.3-1.3-0.3h-0.6V361.8z"/>
	<path id="XMLID_162_" fill="#83A8C9" d="M248.7,366.5l-2.1-6.7h-0.1c0.1,1.4,0.1,2.3,0.1,2.7v4h-1.6V358h2.5l2,6.6h0l2.2-6.6h2.5
		v8.6h-1.7v-4.1c0-0.2,0-0.4,0-0.7s0-0.9,0.1-2h-0.1l-2.2,6.7H248.7z"/>
	<path id="XMLID_164_" fill="#83A8C9" d="M261.8,366.5l-0.6-2h-3.1l-0.6,2h-2l3-8.6h2.2l3,8.6H261.8z M260.8,363
		c-0.6-1.8-0.9-2.9-1-3.1s-0.1-0.4-0.2-0.6c-0.1,0.5-0.5,1.7-1.1,3.7H260.8z"/>
	<path id="XMLID_167_" fill="#83A8C9" d="M270.9,360.6c0,0.9-0.3,1.6-0.9,2.1s-1.4,0.7-2.5,0.7h-0.8v3H265V358h2.7
		c1,0,1.8,0.2,2.4,0.7S270.9,359.7,270.9,360.6z M266.8,362h0.6c0.6,0,1-0.1,1.3-0.3s0.4-0.5,0.4-1c0-0.4-0.1-0.7-0.3-0.9
		s-0.6-0.3-1.1-0.3h-0.8V362z"/>
	<path id="XMLID_170_" fill="#83A8C9" d="M277.7,364.1c0,0.8-0.3,1.4-0.8,1.8s-1.3,0.7-2.3,0.7c-0.9,0-1.7-0.2-2.4-0.5v-1.7
		c0.6,0.3,1.1,0.4,1.5,0.5s0.8,0.2,1.1,0.2c0.4,0,0.7-0.1,0.9-0.2s0.3-0.4,0.3-0.7c0-0.2,0-0.3-0.1-0.4s-0.2-0.3-0.4-0.4
		s-0.6-0.3-1.1-0.6c-0.5-0.2-0.9-0.5-1.2-0.7s-0.5-0.5-0.6-0.8s-0.2-0.7-0.2-1.1c0-0.8,0.3-1.4,0.8-1.8s1.2-0.7,2.1-0.7
		c0.4,0,0.9,0.1,1.3,0.2s0.8,0.3,1.3,0.4l-0.6,1.4c-0.5-0.2-0.8-0.3-1.1-0.4s-0.6-0.1-0.9-0.1c-0.3,0-0.6,0.1-0.8,0.2
		s-0.3,0.4-0.3,0.6c0,0.2,0,0.3,0.1,0.4s0.2,0.2,0.4,0.3s0.5,0.3,1.2,0.6c0.8,0.4,1.3,0.8,1.6,1.2S277.7,363.6,277.7,364.1z"/>
</g>
<g id="XMLID_208_">
	<path id="XMLID_123_" fill="#83A8C9" d="M514.2,358h1.8l-2.9,8.6h-2l-2.9-8.6h1.8l1.6,5.1c0.1,0.3,0.2,0.7,0.3,1.1s0.2,0.7,0.2,0.8
		c0-0.4,0.2-1,0.4-1.9L514.2,358z"/>
	<path id="XMLID_125_" fill="#83A8C9" d="M522.3,366.5h-4.9V358h4.9v1.5h-3.1v1.9h2.9v1.5h-2.9v2.2h3.1V366.5z"/>
	<path id="XMLID_127_" fill="#83A8C9" d="M527.6,359.3c-0.7,0-1.2,0.3-1.6,0.8s-0.6,1.2-0.6,2.1c0,1.9,0.7,2.9,2.2,2.9
		c0.6,0,1.3-0.2,2.2-0.5v1.5c-0.7,0.3-1.5,0.4-2.4,0.4c-1.2,0-2.2-0.4-2.9-1.1s-1-1.8-1-3.3c0-0.9,0.2-1.7,0.5-2.3s0.8-1.2,1.4-1.5
		s1.3-0.5,2.1-0.5c0.8,0,1.7,0.2,2.5,0.6l-0.6,1.5c-0.3-0.2-0.6-0.3-1-0.4S527.9,359.3,527.6,359.3z"/>
	<path id="XMLID_129_" fill="#83A8C9" d="M535.3,366.5h-1.8v-7.1h-2.3V358h6.5v1.5h-2.3V366.5z"/>
	<path id="XMLID_131_" fill="#83A8C9" d="M546.7,362.2c0,1.4-0.4,2.5-1.1,3.3s-1.7,1.1-3,1.1s-2.3-0.4-3-1.1s-1.1-1.9-1.1-3.3
		s0.4-2.5,1.1-3.3s1.7-1.1,3-1.1s2.3,0.4,3,1.1S546.7,360.8,546.7,362.2z M540.4,362.2c0,1,0.2,1.7,0.5,2.2s0.9,0.7,1.6,0.7
		c1.4,0,2.2-1,2.2-2.9c0-1.9-0.7-2.9-2.2-2.9c-0.7,0-1.3,0.2-1.6,0.7S540.4,361.3,540.4,362.2z"/>
	<path id="XMLID_134_" fill="#83A8C9" d="M550.3,363.2v3.3h-1.8V358h2.5c1.2,0,2,0.2,2.6,0.6s0.8,1.1,0.8,1.9c0,0.5-0.1,1-0.4,1.3
		s-0.7,0.7-1.2,0.9c1.3,1.9,2.1,3.2,2.5,3.7h-2l-2-3.3H550.3z M550.3,361.8h0.6c0.6,0,1-0.1,1.3-0.3s0.4-0.5,0.4-0.9
		c0-0.4-0.1-0.7-0.4-0.9s-0.7-0.3-1.3-0.3h-0.6V361.8z"/>
	<path id="XMLID_137_" fill="#83A8C9" d="M563.1,366.5l-2.1-6.7H561c0.1,1.4,0.1,2.3,0.1,2.7v4h-1.6V358h2.5l2,6.6h0l2.2-6.6h2.5
		v8.6h-1.7v-4.1c0-0.2,0-0.4,0-0.7s0-0.9,0.1-2H567l-2.2,6.7H563.1z"/>
	<path id="XMLID_139_" fill="#83A8C9" d="M576.2,366.5l-0.6-2h-3.1l-0.6,2h-2l3-8.6h2.2l3,8.6H576.2z M575.1,363
		c-0.6-1.8-0.9-2.9-1-3.1s-0.1-0.4-0.2-0.6c-0.1,0.5-0.5,1.7-1.1,3.7H575.1z"/>
	<path id="XMLID_142_" fill="#83A8C9" d="M585.3,360.6c0,0.9-0.3,1.6-0.9,2.1s-1.4,0.7-2.5,0.7h-0.8v3h-1.8V358h2.7
		c1,0,1.8,0.2,2.4,0.7S585.3,359.7,585.3,360.6z M581.2,362h0.6c0.6,0,1-0.1,1.3-0.3s0.4-0.5,0.4-1c0-0.4-0.1-0.7-0.3-0.9
		s-0.6-0.3-1.1-0.3h-0.8V362z"/>
	<path id="XMLID_145_" fill="#83A8C9" d="M592.1,364.1c0,0.8-0.3,1.4-0.8,1.8s-1.3,0.7-2.3,0.7c-0.9,0-1.7-0.2-2.4-0.5v-1.7
		c0.6,0.3,1.1,0.4,1.5,0.5s0.8,0.2,1.1,0.2c0.4,0,0.7-0.1,0.9-0.2s0.3-0.4,0.3-0.7c0-0.2,0-0.3-0.1-0.4s-0.2-0.3-0.4-0.4
		s-0.6-0.3-1.1-0.6c-0.5-0.2-0.9-0.5-1.2-0.7s-0.5-0.5-0.6-0.8s-0.2-0.7-0.2-1.1c0-0.8,0.3-1.4,0.8-1.8s1.2-0.7,2.1-0.7
		c0.4,0,0.9,0.1,1.3,0.2s0.8,0.3,1.3,0.4l-0.6,1.4c-0.5-0.2-0.8-0.3-1.1-0.4s-0.6-0.1-0.9-0.1c-0.3,0-0.6,0.1-0.8,0.2
		s-0.3,0.4-0.3,0.6c0,0.2,0,0.3,0.1,0.4s0.2,0.2,0.4,0.3s0.5,0.3,1.2,0.6c0.8,0.4,1.3,0.8,1.6,1.2S592.1,363.6,592.1,364.1z"/>
</g>
<g id="XMLID_201_">
	<path id="XMLID_110_" fill="#83A8C9" d="M8.7,276.5H2.3v-1.2l4.1-5.9h-4V268h6.2v1.2L4.4,275h4.2V276.5z"/>
	<path id="XMLID_112_" fill="#83A8C9" d="M17.7,272.2c0,1.4-0.4,2.5-1.1,3.3s-1.7,1.1-3,1.1s-2.3-0.4-3-1.1s-1.1-1.9-1.1-3.3
		s0.4-2.5,1.1-3.3s1.7-1.1,3-1.1s2.3,0.4,3,1.1S17.7,270.8,17.7,272.2z M11.5,272.2c0,1,0.2,1.7,0.5,2.2s0.9,0.7,1.6,0.7
		c1.4,0,2.2-1,2.2-2.9c0-1.9-0.7-2.9-2.2-2.9c-0.7,0-1.3,0.2-1.6,0.7S11.5,271.3,11.5,272.2z"/>
	<path id="XMLID_115_" fill="#83A8C9" d="M27.3,272.2c0,1.4-0.4,2.5-1.1,3.3s-1.7,1.1-3,1.1s-2.3-0.4-3-1.1s-1.1-1.9-1.1-3.3
		s0.4-2.5,1.1-3.3s1.7-1.1,3-1.1s2.3,0.4,3,1.1S27.3,270.8,27.3,272.2z M21,272.2c0,1,0.2,1.7,0.5,2.2s0.9,0.7,1.6,0.7
		c1.4,0,2.2-1,2.2-2.9c0-1.9-0.7-2.9-2.2-2.9c-0.7,0-1.3,0.2-1.6,0.7S21,271.3,21,272.2z"/>
	<path id="XMLID_118_" fill="#83A8C9" d="M32.7,276.5l-2.1-6.7h-0.1c0.1,1.4,0.1,2.3,0.1,2.7v4H29V268h2.5l2,6.6h0l2.2-6.6h2.5v8.6
		h-1.7v-4.1c0-0.2,0-0.4,0-0.7s0-0.9,0.1-2h-0.1l-2.2,6.7H32.7z"/>
	<path id="XMLID_120_" fill="#83A8C9" d="M48.8,272.2c0,1.5-0.2,2.6-0.7,3.3s-1.2,1.1-2.3,1.1c-1,0-1.7-0.4-2.2-1.1
		s-0.8-1.8-0.8-3.3c0-1.5,0.2-2.6,0.7-3.3s1.2-1.1,2.3-1.1c1,0,1.7,0.4,2.2,1.1S48.8,270.8,48.8,272.2z M44.6,272.2
		c0,1.1,0.1,1.8,0.3,2.3s0.5,0.7,0.9,0.7c0.4,0,0.7-0.2,0.9-0.7s0.3-1.2,0.3-2.2c0-1.1-0.1-1.8-0.3-2.3s-0.5-0.7-0.9-0.7
		c-0.4,0-0.7,0.2-0.9,0.7S44.6,271.2,44.6,272.2z"/>
</g>
<g id="XMLID_29_">
	<path id="XMLID_105_" fill="#83A8C9" d="M112,108H77c-0.6,0-1-0.4-1-1s0.4-1,1-1h35c0.6,0,1,0.4,1,1S112.6,108,112,108z"/>
</g>
<g id="XMLID_203_">
	<path id="XMLID_100_" fill="#83A8C9" d="M405,108h-35c-0.6,0-1-0.4-1-1s0.4-1,1-1h35c0.6,0,1,0.4,1,1S405.6,108,405,108z"/>
</g>
<g id="XMLID_206_">
	<path id="XMLID_95_" fill="#83A8C9" d="M112,273H77c-0.6,0-1-0.4-1-1s0.4-1,1-1h35c0.6,0,1,0.4,1,1S112.6,273,112,273z"/>
</g>
<g id="XMLID_204_">
	<path id="XMLID_90_" fill="#83A8C9" d="M405,273h-35c-0.6,0-1-0.4-1-1s0.4-1,1-1h35c0.6,0,1,0.4,1,1S405.6,273,405,273z"/>
</g>
</svg>
