<?xml version="1.0" encoding="UTF-8" ?>
<!DOCTYPE svg PUBLIC "-//W3C//DTD SVG 1.1//EN" "http://www.w3.org/Graphics/SVG/1.1/DTD/svg11.dtd">
<svg width="256pt" height="256pt" viewBox="0 0 256 256" version="1.1" xmlns="http://www.w3.org/2000/svg">
<g id="#ffffffff">
<path fill="#ffffff" opacity="1.00" d=" M 112.79 4.56 C 122.94 4.33 133.09 4.27 143.24 4.58 C 144.60 5.99 146.69 5.47 148.44 5.71 L 148.46 6.43 C 150.13 6.49 151.81 6.56 153.49 6.61 L 153.54 7.29 C 155.03 7.44 156.51 7.61 157.99 7.81 C 166.19 10.29 174.42 12.79 182.10 16.67 C 183.39 17.46 184.74 18.15 186.12 18.78 C 208.10 30.42 226.56 48.83 237.81 71.05 C 238.69 72.62 239.55 74.21 240.33 75.84 C 243.04 81.69 245.24 87.77 247.05 93.96 C 247.39 95.27 247.74 96.58 248.21 97.85 C 248.36 99.08 248.50 100.30 248.63 101.53 L 249.34 101.55 C 249.39 103.23 249.48 104.90 249.56 106.58 C 249.74 106.57 250.10 106.55 250.28 106.54 C 250.41 109.20 250.60 111.85 250.70 114.52 L 251.35 114.51 C 251.81 123.50 251.81 132.52 251.33 141.51 L 250.67 141.50 C 250.60 143.87 250.46 146.23 250.37 148.59 L 249.67 148.54 C 249.55 150.51 249.40 152.48 249.29 154.45 L 248.59 154.42 C 248.48 155.64 248.35 156.87 248.22 158.09 C 247.72 159.36 247.37 160.67 247.03 161.98 C 245.06 168.44 242.96 174.90 239.78 180.88 C 239.26 181.96 238.73 183.03 238.22 184.12 C 230.06 200.36 218.09 214.57 203.78 225.73 C 200.95 227.85 198.17 230.08 195.07 231.79 C 184.23 237.47 173.45 243.62 161.45 246.52 C 152.42 248.66 143.30 250.66 134.00 251.13 C 127.66 252.24 121.33 250.73 114.99 250.57 C 105.01 249.04 95.14 246.78 85.46 243.89 C 80.57 242.28 75.88 240.09 71.34 237.66 C 69.54 236.75 67.77 235.78 66.02 234.76 C 52.36 227.03 40.55 216.30 30.74 204.10 C 26.57 198.84 22.97 193.16 19.70 187.30 C 18.90 185.77 18.10 184.24 17.31 182.70 C 16.40 180.87 15.53 179.02 14.66 177.18 C 11.80 170.66 9.83 163.83 7.83 157.02 C 7.62 155.54 7.44 154.06 7.29 152.57 L 6.68 152.48 C 6.61 150.32 6.57 148.13 5.77 146.09 C 5.46 144.75 5.90 143.06 4.55 142.16 C 4.37 132.72 4.34 123.28 4.56 113.84 C 6.38 110.83 6.30 106.91 6.68 103.47 L 7.26 103.61 C 7.41 102.04 7.59 100.48 7.81 98.92 C 8.31 97.64 8.62 96.30 8.94 94.97 C 10.53 89.49 12.35 84.08 14.60 78.83 C 15.46 76.93 16.35 75.05 17.31 73.19 C 28.26 50.79 46.29 32.02 68.03 19.86 C 69.09 19.35 70.14 18.83 71.20 18.32 C 77.42 14.73 84.21 12.25 91.00 10.00 C 92.29 9.64 93.59 9.30 94.87 8.90 C 97.40 8.21 99.94 7.48 102.57 7.30 L 102.51 6.69 C 104.55 6.57 106.60 6.43 108.64 6.31 L 108.44 5.69 C 109.91 5.49 111.67 5.78 112.79 4.56 M 107.01 17.21 C 105.47 17.40 103.93 17.55 102.39 17.67 L 102.51 18.39 C 101.20 18.46 99.88 18.54 98.57 18.61 L 98.55 19.29 C 88.74 21.48 79.38 25.68 70.69 30.70 C 52.81 41.30 37.96 56.80 28.15 75.12 C 25.40 80.25 23.18 85.66 21.32 91.17 C 20.39 93.54 19.56 95.96 19.26 98.50 L 18.57 98.48 C 18.50 99.82 18.43 101.16 18.36 102.50 L 17.68 102.45 C 17.40 106.03 16.21 109.48 16.14 113.09 C 14.93 118.30 15.36 123.71 15.26 129.02 C 15.34 133.64 15.06 138.36 16.17 142.89 C 16.34 144.77 16.49 146.65 16.61 148.54 L 17.31 148.56 C 17.38 150.22 17.51 151.88 17.62 153.54 L 18.38 153.49 C 18.44 154.85 18.50 156.21 18.57 157.57 C 18.76 157.48 19.13 157.30 19.31 157.21 C 19.47 158.78 19.71 160.35 20.28 161.84 C 22.32 168.07 24.80 174.15 27.75 180.01 C 28.88 182.01 29.93 184.06 31.18 185.99 C 40.27 201.00 52.83 213.91 67.70 223.25 C 69.11 224.15 70.52 225.04 71.96 225.90 C 77.62 229.26 83.72 231.77 89.84 234.14 C 90.87 234.44 91.90 234.75 92.92 235.08 C 93.93 235.42 94.93 235.78 95.94 236.15 C 97.26 236.43 98.61 236.71 99.86 237.25 C 113.53 240.75 127.94 241.73 141.92 239.85 C 144.26 239.63 146.69 239.67 148.90 238.76 C 150.60 238.54 152.38 238.52 153.92 237.69 C 155.08 237.55 156.24 237.43 157.41 237.32 L 157.41 236.57 C 158.08 236.50 159.42 236.37 160.09 236.30 C 161.11 235.89 162.15 235.52 163.19 235.17 C 171.13 232.54 178.90 229.28 186.02 224.86 C 201.56 215.65 214.72 202.66 224.31 187.36 C 225.17 185.91 226.01 184.44 226.87 182.99 C 229.93 178.05 231.99 172.59 234.16 167.22 C 235.29 164.19 236.04 161.03 237.31 158.07 C 237.45 156.88 237.58 155.70 237.70 154.52 L 238.38 154.55 C 238.48 153.33 238.61 152.12 238.75 150.90 C 239.67 149.03 239.60 146.90 239.85 144.88 C 241.02 141.37 240.39 137.60 241.13 134.01 C 241.34 129.71 241.68 125.34 240.86 121.07 C 240.66 117.74 240.88 114.31 239.85 111.08 C 239.57 109.07 239.74 106.91 238.76 105.06 C 238.61 103.88 238.48 102.69 238.38 101.50 L 237.68 101.42 C 237.59 100.10 237.50 98.79 237.41 97.48 L 236.74 97.45 C 236.49 94.90 235.55 92.51 234.64 90.14 C 232.59 84.21 230.06 78.42 226.94 72.97 C 226.08 71.52 225.24 70.06 224.37 68.63 C 215.09 53.64 202.25 40.99 187.28 31.70 C 186.42 31.23 185.56 30.75 184.70 30.27 C 183.21 29.33 181.69 28.43 180.15 27.57 C 175.15 25.26 170.13 22.94 164.87 21.30 C 163.59 20.83 162.32 20.38 161.05 19.88 C 159.70 19.60 158.33 19.34 157.06 18.77 C 155.71 18.51 154.35 18.26 153.09 17.68 C 151.58 17.51 150.06 17.38 148.54 17.28 L 148.61 16.60 C 146.71 16.48 144.81 16.33 142.92 16.16 C 138.05 15.00 132.97 15.36 128.00 15.26 C 123.04 15.36 117.98 15.02 113.12 16.18 C 111.07 16.42 108.90 16.25 107.01 17.21 Z" />
<path fill="#ffffff" opacity="1.00" d=" M 96.92 32.44 C 99.97 32.44 103.02 32.61 106.07 32.84 C 108.97 33.81 112.07 33.59 115.08 33.85 C 118.35 34.67 121.75 34.56 125.08 34.97 C 129.36 35.86 133.69 35.06 137.98 34.84 C 145.12 34.80 152.24 34.46 159.38 34.41 C 153.03 42.83 146.89 51.41 140.70 59.95 C 136.83 67.28 132.98 74.63 129.07 81.94 C 128.22 83.31 127.54 84.77 127.07 86.31 L 125.78 86.40 C 125.28 84.87 124.70 83.38 124.10 81.90 C 121.73 76.95 119.67 71.86 117.40 66.86 C 116.82 65.62 116.27 64.36 115.70 63.12 C 115.24 62.00 114.76 60.90 114.31 59.78 C 111.09 54.33 107.67 49.01 104.35 43.62 C 103.43 42.22 102.54 40.80 101.63 39.39 C 100.18 36.99 98.82 34.52 96.92 32.44 M 106.13 37.64 C 109.54 44.14 113.91 50.07 117.55 56.44 C 120.85 62.92 123.39 69.76 126.50 76.33 C 131.56 69.75 133.86 61.46 138.82 54.78 C 142.67 49.64 146.47 44.45 150.17 39.19 C 140.48 39.01 130.76 40.48 121.11 39.14 C 116.13 38.53 111.13 38.07 106.13 37.64 Z" />
<path fill="#ffffff" opacity="1.00" d=" M 209.88 102.78 C 212.71 100.87 215.29 98.56 218.31 96.94 C 217.45 107.26 217.56 117.65 217.30 128.00 C 217.94 138.36 219.34 148.65 220.36 158.98 C 217.15 157.19 214.13 155.08 210.97 153.19 C 209.92 152.53 208.87 151.87 207.83 151.21 C 203.32 148.32 198.70 145.60 194.19 142.70 C 192.81 142.09 191.45 141.45 190.11 140.77 C 187.73 139.81 185.41 138.72 183.10 137.61 C 178.72 135.84 174.45 133.82 170.10 131.96 C 168.76 131.39 167.41 130.83 166.06 130.32 C 166.19 129.95 166.47 129.21 166.61 128.84 C 168.53 128.16 170.30 127.13 172.10 126.18 C 178.41 122.85 184.68 119.44 191.04 116.23 C 197.50 112.01 203.66 107.34 209.88 102.78 M 189.90 121.88 C 185.20 124.34 180.46 126.72 175.78 129.20 C 182.71 133.27 190.57 135.43 197.52 139.46 C 203.27 142.98 208.85 146.78 214.75 150.03 C 214.29 140.36 212.02 130.78 212.59 121.06 C 212.77 116.04 213.55 111.06 213.43 106.03 C 205.35 110.97 198.45 117.70 189.90 121.88 Z" />
<path fill="#ffffff" opacity="1.00" d=" M 35.63 96.88 C 38.87 99.09 42.00 101.44 45.15 103.77 C 51.05 107.94 56.74 112.45 62.84 116.33 C 63.90 116.81 64.95 117.33 66.01 117.84 C 71.62 120.92 77.29 123.91 83.00 126.82 C 83.48 127.12 84.44 127.72 84.92 128.02 C 85.55 128.24 86.82 128.67 87.46 128.89 C 87.49 129.28 87.55 130.07 87.59 130.47 C 86.96 130.68 85.71 131.11 85.08 131.33 C 80.73 133.23 76.40 135.15 72.06 137.07 C 69.68 138.02 67.36 139.10 65.07 140.23 C 57.36 143.30 50.73 148.45 43.62 152.64 C 40.26 154.77 36.89 156.87 33.55 159.03 C 33.64 157.30 33.74 155.57 33.85 153.85 C 34.93 145.91 35.59 137.91 36.48 129.94 C 36.82 118.91 35.71 107.90 35.63 96.88 M 40.45 106.03 C 40.27 112.71 40.92 119.37 41.28 126.03 C 40.80 134.05 39.39 142.00 39.06 150.04 C 44.76 146.83 50.19 143.17 55.76 139.76 C 62.79 135.52 70.86 133.38 77.92 129.20 C 71.44 125.60 64.66 122.56 58.29 118.77 C 52.27 114.63 46.56 110.03 40.45 106.03 Z" />
<path fill="#ffffff" opacity="1.00" d=" M 125.68 165.22 C 126.04 165.25 126.77 165.31 127.13 165.35 C 127.64 166.58 128.22 167.78 128.79 168.99 C 133.61 177.02 137.20 185.75 142.32 193.60 C 148.08 201.25 153.44 209.21 159.40 216.73 C 145.56 216.98 131.70 215.40 117.90 216.84 C 111.04 218.02 104.04 218.26 97.14 219.20 C 102.40 210.48 107.96 201.94 113.29 193.26 C 113.94 191.87 114.61 190.49 115.27 189.11 C 116.40 186.34 117.81 183.69 118.93 180.91 C 121.14 175.66 123.68 170.55 125.68 165.22 M 126.60 174.72 C 123.44 181.30 120.90 188.16 117.63 194.68 C 113.85 201.04 109.73 207.20 105.98 213.59 C 113.02 213.27 119.97 211.97 127.00 211.46 C 134.73 211.17 142.44 211.86 150.15 212.36 C 146.45 206.35 141.91 200.93 137.93 195.13 C 133.62 188.63 130.95 181.19 126.60 174.72 Z" />
</g>
<g id="#d2d2d2ff">
<path fill="#d2d2d2" opacity="1.00" d=" M 106.13 37.64 C 111.13 38.07 116.13 38.53 121.11 39.14 C 130.76 40.48 140.48 39.01 150.17 39.19 C 146.47 44.45 142.67 49.64 138.82 54.78 C 133.86 61.46 131.56 69.75 126.50 76.33 C 123.39 69.76 120.85 62.92 117.55 56.44 C 113.91 50.07 109.54 44.14 106.13 37.64 Z" />
<path fill="#d2d2d2" opacity="1.00" d=" M 40.45 106.03 C 46.56 110.03 52.27 114.63 58.29 118.77 C 64.66 122.56 71.44 125.60 77.92 129.20 C 70.86 133.38 62.79 135.52 55.76 139.76 C 50.19 143.17 44.76 146.83 39.06 150.04 C 39.39 142.00 40.80 134.05 41.28 126.03 C 40.92 119.37 40.27 112.71 40.45 106.03 Z" />
<path fill="#d2d2d2" opacity="1.00" d=" M 189.90 121.88 C 198.45 117.70 205.35 110.97 213.43 106.03 C 213.55 111.06 212.77 116.04 212.59 121.06 C 212.02 130.78 214.29 140.36 214.75 150.03 C 208.85 146.78 203.27 142.98 197.52 139.46 C 190.57 135.43 182.71 133.27 175.78 129.20 C 180.46 126.72 185.20 124.34 189.90 121.88 Z" />
<path fill="#d2d2d2" opacity="1.00" d=" M 126.60 174.72 C 130.95 181.19 133.62 188.63 137.93 195.13 C 141.91 200.93 146.45 206.35 150.15 212.36 C 142.44 211.86 134.73 211.17 127.00 211.46 C 119.97 211.97 113.02 213.27 105.98 213.59 C 109.73 207.20 113.85 201.04 117.63 194.68 C 120.90 188.16 123.44 181.30 126.60 174.72 Z" />
</g>
<g id="#8c8c8cae">
<path fill="#8c8c8c" opacity="0.68" d=" M 161.45 246.52 C 173.45 243.62 184.23 237.47 195.07 231.79 C 190.51 235.52 185.10 238.04 179.83 240.61 C 168.28 245.60 156.10 249.76 143.47 250.69 C 143.17 250.97 142.55 251.53 142.24 251.81 C 132.74 251.78 123.25 251.79 113.75 251.83 C 113.45 251.54 112.85 250.97 112.55 250.69 C 103.28 249.84 93.94 247.74 85.46 243.89 C 95.14 246.78 105.01 249.04 114.99 250.57 C 121.33 250.73 127.66 252.24 134.00 251.13 C 143.30 250.66 152.42 248.66 161.45 246.52 Z" />
</g>
</svg>
