<svg height="256pt" viewBox="0 0 256 256" width="256pt" xmlns="http://www.w3.org/2000/svg">
    <g fill="#fff">
        <path d="M112.8 4.6c10.1-.3 21.1-.3 30.4 0 1.4 1.4 3.5.9 5.2 1.1v.7l5 .2.1.7 4.5.5c8.2 2.5 16.4 5 25 8.9.4.8 1.7 1.5 3.1 2 22.9 11.7 40.5 30.1 51.7 52.8.9 1.1 1.7 2.7 2.5 4.3 3.1 5.9 5 12 7.2 18.2-.1 1.3.2 2.6.7 3.9l.4 3.6h.7c0 1.7.2 3.4.3 5h.7l.4 8h.6c.5 9 .5 18 0 27h-.6l-.3 7h-.7l-.4 6h-.7l-.4 4.4a89.1 89.1 0 0 1-8.4 22c-.5 1-1 2.4-1.6 3.2a109.5 109.5 0 0 1-34.4 41.6c-2.9 2.2-5.6 5.1-8.1 6-11.5 5.8-22.3 12-34.3 14.8a153 153 0 0 1-27.4 4.6c-6.3 1.1-12.7-.4-19-.5-9-1.2-19.9-3.8-29.5-6.7-5-1.6-9.6-3-14.2-6.2l-5.1-3a118.9 118.9 0 0 1-46.5-47.4c-.8-1.5-.7-3-2.4-4.6-.9-1.8-1.8-3.5-2.6-5.5-2.9-6.5-4.9-13.4-6.9-20-.2-1.7-.4-2.6-.5-4.6l-.6-.1c0-2.2-.1-4.4-1-5.6-.2-2.1.2-3.3-1.2-4.7-.1-9.5-.2-19 0-28.4 1.9-3 1.8-6.9 2.2-10.3l.6.1.5-4.7c.5-1.3.8-2.6 1.1-4 1.6-5.4 3.4-10.1 5.7-16l2.7-5.7c11-22.4 29-41 51-53.3 1.6-.5 1.8-1 2.9-1.6 6.2-3.6 13-6 19.8-8.1 1.3-.6 2.6-.9 3.9-1.3 2.5-.7 5-1.4 7.7-1.6v-.6l6-.4-.2-.6c1.5-.2 3.3 0 4.4-1.1M108 17.2l-5.6.5.1.7-4 .2v.7a99.8 99.8 0 0 0-27.8 11.4A115 115 0 0 0 28 75.1a105 105 0 0 0-8.8 23.4h-.7l-.2 4h-.7c-.3 3.8-1.5 7-1.6 11.4-1.2 4.4-.7 9.8-.8 15.3 0 4.4.3 9.2.9 13.7l.4 5.6h.7c0 1.7.2 3.4.3 5h.8l.2 4 .7-.3a18 18 0 0 0 1 4.6c2 6.9 4.5 12.4 7.4 18.3 1.2 2 2.2 4.5 3.5 5.9 9 15.7 21.6 28 36.5 37.3 1.4.9 2.8 2.1 4.3 2.6 5.6 3.4 11.7 5.9 17.8 8.2 1 .3 2.1.7 3.1 1.7 1-.4 2 0 3 .4a110.9 110.9 0 0 0 46 3.7c2.4-.3 4.8-.2 7-1.1 1.7-.3 3.5-.3 5-1.1 1.9-.1 2.3-.3 3.5-.4v-.7l3.5-.3c.2-.4 1.2-.8 2.3-1.1a112.2 112.2 0 0 0 61.1-47.8c.9-1.5 2.7-3 2.6-4.4 3-4.5 5-10.4 7.3-15.8l3.1-8.5.4-4.2h.7l.3-3.6c1-1.6.9-4 1.1-6 1.4-3.5.6-7.3 1.3-10.8.2-4.4.6-8.8-.2-12.4-.2-4 0-7.4-1-9.9-.3-2.1-.2-4.9-1.1-6.2l-.4-4.1h-.7l-.3-4h-.7c-.2-2.6-1.2-5-2-7.4-2.1-5.9-4.1-11.7-7.8-17.1-.1-1.5-1.7-2.4-2.5-4.4-8.5-15-22.2-27.6-37.1-36.9l-2.6-1.4a99 99 0 0 0-4.6-2.7c-5-2.3-10-4.7-15.2-6.3l-3.4-1.4c-1.8-.3-3.2-.6-3.9-1.1-1.9-.3-3.3-.5-3.7-1.1l-5.4-.4.1-.7-5.7-.4c-4.4-1-10-.8-14.9-1-4.6.2-10 0-14.9 1-1.4.2-4.2 0-5.1 1z"/>
        <path d="M97 32.4c3 0 6.2.2 9.7.4 2.3 1 6 .8 9.1 1 2.5.9 6 .8 10 1.2 3.6.9 7.9.6 12.2-.2 7.1 0 14.2-.3 21.4-.4L140.7 60c-3.9 7.3-7.7 14.6-11 22-1.5 1.3-2.2 2.8-2 4.3l-2 .1c-.4-1.5-1-3-.7-4.5-3.3-5-5.3-10-7.6-15l-1.7-3.8c-.5-.9-1-2.2-1.4-3.3-2.4-5.5-6.6-10.7-10-16.2l-2.7-4.2c-1.4-2.4-2.8-4.9-4.7-7m9.2 5.2c3.4 6.5 7.8 13.1 11.4 18.8 3.3 6.5 5.9 13.4 9 20 5-6.6 7.4-15 12.3-21.6a646 646 0 0 0 11.4-15.6c-9.7-.1-19.4 1.3-29 0-5-.7-10-.5-15-1.6zM209.9 102.8c2.8-2 5.4-4.2 8.4-5.9-.9 10.4-.7 20.8-1 31.5.6 10 2 20.3 3 30.6-3.2-1.8-6.2-3.2-9.3-5.8l-3.2-2-13.6-8.5c-1.4.2-2.8-1.2-4-2-2.5-.9-4.8-2-6.2-3a82 82 0 0 1-13-5.7c-2.2-.6-3.6-1.2-4.4-1.7-.4-.3-.1-1 0-1.5 2-.6 3.7-1.7 6.4-2.6a200 200 0 0 1 18.4-10c6.1-4.1 12.3-8.9 18.5-13.4m-20 19l-14.1 7.4c7 4 14.8 6.2 21.7 10.3 5.8 3.5 11.3 7.3 17.2 10.8-.4-10-2.5-19.5-2.1-28.7.2-5.2 1-10 .8-15.3-8 4.7-15 11.4-23.5 15.6zM35.6 96.9c3.3 3 6.4 4.5 9.5 6.9 6.4 4.1 11.6 8.7 17.7 12.5 1.1.5 2.1 1 4.2 1.5 4.6 3.1 10.3 6.1 16 9l2 1.4c.5 0 1.8.5 2.5.7v1.6c-.5.2-1.8.6-1.7.8a63 63 0 0 0-13.2 6.4c-3 .5-5.2 1.4-6.9 2.5-8.3 3.1-15 8.3-22 12.4-3.4 2.2-6.8 4.3-10.2 6.7l.3-5.4c1.1-8 1.8-16 2.7-24 .3-11-.8-22-.9-33m4.8 9.4c-.1 6.4.5 13 .9 20-.5 8.2-2 16.4-1.7 24.1 5.2-3.6 10.6-7.2 16.2-10.6 7-4.3 15-6.4 22.1-10.6-6.5-3.6-13.2-6.6-19.6-10.4-6-4.2-11.7-8.5-17.9-12.5zM125.7 165.2l1.4.2 1.7 3.6c4.8 8.2 8.4 16.8 13.5 24.6 6.5 7.7 11.1 15.6 17.1 23.1-13.8.3-27.7-1.3-41.5.1-6.5 1.4-13.5 1.5-20.8 2.4 5.3-8.7 10.9-17.3 16.2-26l2-4c1.1-2.9 2.5-5.5 3.6-8.3 2.2-5.2 4.8-10.3 6.8-15.7m.9 9.5c-3.2 6.6-5.7 13.5-9 20-3.8 6.7-7.9 12.5-11.6 18.9 7.2-.3 14-1.6 21-2.1 7.7-.3 15.4.4 23.1.9-3.7-6-8.2-11.5-12.2-17.3-4.3-6.5-7-14-11.3-20.4z"/>
    </g>
    <g fill="#d2d2d2">
        <path d="M106.1 37.6c5 1.1 10 1 15 1.5 9.7 1.4 19.4 0 29 0a646 646 0 0 1-11.3 15.7c-5 6.7-7.2 15-12.3 21.5-3.1-6.5-5.7-13.4-9-19.9-3.6-5.7-8-12.3-11.4-18.8zM40.4 106.3c6.2 4 11.9 8.3 17.9 12.5 6.4 3.8 13.1 6.8 19.6 10.4-7 4.2-15.1 6.3-22.1 10.6-5.6 3.4-11 7-16.2 10.6-.2-7.7 1.2-15.9 1.7-24.1-.4-7-1-13.6-.9-20zM189.9 121.9c8.5-4.2 15.4-11 23.5-15.6.1 5.3-.6 10.1-.8 15.3-.4 9.2 1.7 18.8 2.1 28.7-5.9-3.5-11.4-7.3-17.2-10.8-7-4-14.8-6.2-21.7-10.3l14.1-7.3zM126.6 174.7c4.3 6.5 7 14 11.3 20.4 4 5.8 8.5 11.3 12.2 17.3-7.7-.5-15.4-1.2-23.1-1-7 .6-13.8 1.9-21 2.2 3.7-6.4 7.8-12.2 11.6-19 3.3-6.4 5.8-13.3 9-19.9z"/>
    </g>
    <path d="M161.4 246.5c12-2.9 22.8-9 34.3-14.7a61.2 61.2 0 0 1-15.9 8.8c-11.5 5-22.8 9.2-36.3 10l-1.3 1.2h-28.5l-1.2-1.1c-9.2-.9-18.6-3-27-6.8 9.6 2.9 20.5 5.5 29.5 6.7 6.3.1 12.7 1.6 19 .5a153 153 0 0 0 27.4-4.6z" fill="#8c8c8c" opacity=".7"/>
</svg>
