{
    "accessors": {
        "accessor_21": {
            "bufferView": "bufferView_57",
            "byteOffset": 0,
            "byteStride": 0,
            "componentType": 5123,
            "count": 26718,
            "type": "SCALAR"
        },
        "accessor_23": {
            "bufferView": "bufferView_58",
            "byteOffset": 0,
            "byteStride": 12,
            "componentType": 5126,
            "count": 6664,
            "max": [
                17.00969886779785,
                9.176229476928711,
                23.659000396728516
            ],
            "min": [
                -17.00969886779785,
                -2.507580041885376,
                -17.566299438477
            ],
            "type": "VEC3"
        },
        "accessor_25": {
            "bufferView": "bufferView_58",
            "byteOffset": 79968,
            "byteStride": 2,
            "componentType": 5120,
            "count": 6664,
            "max": [
                127,
                127
            ],
            "min": [
                -127,
                -127
            ],
            "type": "VEC2"
        },
        "accessor_27": {
            "bufferView": "bufferView_58",
            "byteOffset": 93296,
            "byteStride": 6,
            "componentType": 5122,
            "count": 6664,
            "max": [
                30983,
                16109,
                -32765
            ],
            "min": [
                -1117,
                -1009,
                -32765
            ],
            "type": "VEC3"
        },
        "animAccessor_0": {
            "bufferView": "bufferView_56",
            "byteOffset": 0,
            "componentType": 5126,
            "count": 9,
            "type": "SCALAR"
        },
        "animAccessor_1": {
            "bufferView": "bufferView_56",
            "byteOffset": 36,
            "componentType": 5126,
            "count": 9,
            "type": "VEC4"
        },
        "animAccessor_2": {
            "bufferView": "bufferView_56",
            "byteOffset": 180,
            "componentType": 5126,
            "count": 9,
            "type": "VEC4"
        },
        "animAccessor_3": {
            "bufferView": "bufferView_56",
            "byteOffset": 324,
            "componentType": 5126,
            "count": 9,
            "type": "VEC4"
        },
        "animAccessor_4": {
            "bufferView": "bufferView_56",
            "byteOffset": 468,
            "componentType": 5126,
            "count": 2,
            "type": "SCALAR"
        },
        "animAccessor_5": {
            "bufferView": "bufferView_56",
            "byteOffset": 476,
            "componentType": 5126,
            "count": 2,
            "type": "VEC3"
        },
        "animAccessor_6": {
            "bufferView": "bufferView_56",
            "byteOffset": 500,
            "componentType": 5126,
            "count": 2,
            "type": "VEC3"
        },
        "animAccessor_7": {
            "bufferView": "bufferView_56",
            "byteOffset": 524,
            "componentType": 5126,
            "count": 2,
            "type": "VEC3"
        },
        "animAccessor_8": {
            "bufferView": "bufferView_56",
            "byteOffset": 548,
            "componentType": 5126,
            "count": 2,
            "type": "VEC3"
        }
    },
    "animations": {
        "animation_0": {
            "channels": [
                {
                    "sampler": "animation_0_rotation_sampler",
                    "target": {
                        "id": "Geometry-AircraftNode",
                        "path": "rotation"
                    }
                }
            ],
            "parameters": {
                "TIME": "animAccessor_0",
                "rotation": "animAccessor_1"
            },
            "samplers": {
                "animation_0_rotation_sampler": {
                    "input": "TIME",
                    "interpolation": "LINEAR",
                    "output": "rotation"
                }
            }
        },
        "animation_1": {
            "channels": [
                {
                    "sampler": "animation_1_rotation_sampler",
                    "target": {
                        "id": "Geometry-AircraftNode",
                        "path": "rotation"
                    }
                }
            ],
            "parameters": {
                "TIME": "animAccessor_0",
                "rotation": "animAccessor_2"
            },
            "samplers": {
                "animation_1_rotation_sampler": {
                    "input": "TIME",
                    "interpolation": "LINEAR",
                    "output": "rotation"
                }
            }
        },
        "animation_2": {
            "channels": [
                {
                    "sampler": "animation_2_rotation_sampler",
                    "target": {
                        "id": "Geometry-AircraftNode",
                        "path": "rotation"
                    }
                }
            ],
            "parameters": {
                "TIME": "animAccessor_0",
                "rotation": "animAccessor_3"
            },
            "samplers": {
                "animation_2_rotation_sampler": {
                    "input": "TIME",
                    "interpolation": "LINEAR",
                    "output": "rotation"
                }
            }
        },
        "animation_3": {
            "channels": [
                {
                    "sampler": "animation_3_translation_sampler",
                    "target": {
                        "id": "Geometry-AircraftNode",
                        "path": "translation"
                    }
                }
            ],
            "parameters": {
                "TIME": "animAccessor_4",
                "translation": "animAccessor_5"
            },
            "samplers": {
                "animation_3_translation_sampler": {
                    "input": "TIME",
                    "interpolation": "LINEAR",
                    "output": "translation"
                }
            }
        },
        "animation_4": {
            "channels": [
                {
                    "sampler": "animation_4_translation_sampler",
                    "target": {
                        "id": "Geometry-AircraftNode",
                        "path": "translation"
                    }
                }
            ],
            "parameters": {
                "TIME": "animAccessor_4",
                "translation": "animAccessor_6"
            },
            "samplers": {
                "animation_4_translation_sampler": {
                    "input": "TIME",
                    "interpolation": "LINEAR",
                    "output": "translation"
                }
            }
        },
        "animation_5": {
            "channels": [
                {
                    "sampler": "animation_5_translation_sampler",
                    "target": {
                        "id": "Geometry-AircraftNode",
                        "path": "translation"
                    }
                }
            ],
            "parameters": {
                "TIME": "animAccessor_4",
                "translation": "animAccessor_7"
            },
            "samplers": {
                "animation_5_translation_sampler": {
                    "input": "TIME",
                    "interpolation": "LINEAR",
                    "output": "translation"
                }
            }
        },
        "animation_6": {
            "channels": [
                {
                    "sampler": "animation_6_scale_sampler",
                    "target": {
                        "id": "Geometry-AircraftNode",
                        "path": "scale"
                    }
                }
            ],
            "parameters": {
                "TIME": "animAccessor_4",
                "scale": "animAccessor_8"
            },
            "samplers": {
                "animation_6_scale_sampler": {
                    "input": "TIME",
                    "interpolation": "LINEAR",
                    "output": "scale"
                }
            }
        }
    },
    "asset": {
        "generator": "collada2gltf@",
        "premultipliedAlpha": true,
        "profile": {
            "api": "WebGL",
            "version": "1.0.2"
        },
        "version": "1.0"
    },
    "bufferViews": {
        "bufferView_56": {
            "buffer": "aircraft",
            "byteLength": 572,
            "byteOffset": 0
        },
        "bufferView_57": {
            "buffer": "aircraft",
            "byteLength": 53436,
            "byteOffset": 572,
            "target": 34963
        },
        "bufferView_58": {
            "buffer": "aircraft",
            "byteLength": 133280,
            "byteOffset": 54008,
            "target": 34962
        }
    },
    "buffers": {
        "aircraft": {
            "byteLength": 187288,
            "type": "arraybuffer",
            "uri": "data:application/octet-stream;base64,"
        }
    },
    "images": {
        "Image0001": {
            "name": "Image0001",
            "uri": "data:image/jpeg;base64,"
        },
        "Image0003": {
            "name": "Image0003",
            "uri": "data:image/jpeg;base64,"
        }
    },
    "materials": {
        "Effect-aircraft": {
            "name": "aircraft",
            "technique": "technique0",
            "values": {
                "diffuse": "texture_Image0001",
                "shininess": 724.0770263671875,
                "specular": "texture_Image0003"
            }
        }
    },
    "meshes": {
        "Geometry-Aircraft": {
            "name": "Aircraft",
            "primitives": [
                {
                    "attributes": {
                        "NORMAL": "accessor_25",
                        "POSITION": "accessor_23",
                        "TEXCOORD_0": "accessor_27"
                    },
                    "indices": "accessor_21",
                    "material": "Effect-aircraft",
                    "mode": 4
                }
            ]
        }
    },
    "nodes": {
        "Camera-CameraNode": {
            "camera": "",
            "children": [],
            "matrix": [
                -0.6495953798294067,
                0.00000000005832923727355777,
                0.7602801322937012,
                0,
                -0.13954156637191772,
                0.983012318611145,
                -0.11922652274370193,
                0,
                -0.7473646998405457,
                -0.18353967368602753,
                -0.6385602355003357,
                0,
                -10.717499732971191,
                -1.5207599401474,
                -14.998799324035645,
                1
            ],
            "name": "Camera"
        },
        "Geometry-AircraftNode": {
            "children": [
                "node_3"
            ],
            "name": "Aircraft",
            "rotation": [
                0.7071067690849304,
                0.00000000003174668514183132,
                0.7071067690849304,
                0.00000000003174668514183132
            ],
            "scale": [
                1,
                1,
                1
            ],
            "translation": [
                0,
                0,
                0
            ]
        },
        "Light-Directional_LightNode": {
            "children": [],
            "matrix": [
                0.7071067690849304,
                0,
                0.7071067690849304,
                0,
                0.3535533845424652,
                0.8660253882408142,
                -0.3535533845424652,
                0,
                -0.6123724579811096,
                0.5,
                0.6123724579811096,
                0,
                -2,
                2,
                2,
                1
            ],
            "name": "Directional_Light"
        },
        "node_3": {
            "children": [],
            "matrix": [
                1,
                0,
                0,
                0,
                0,
                1,
                0,
                0,
                0,
                0,
                1,
                0,
                0,
                0,
                0,
                1
            ],
            "meshes": [
                "Geometry-Aircraft"
            ],
            "name": ""
        }
    },
    "programs": {
        "program_0": {
            "attributes": [
                "a_normal",
                "a_position",
                "a_texcoord0"
            ],
            "fragmentShader": "aircraft0FS",
            "vertexShader": "aircraft0VS"
        }
    },
    "samplers": {
        "sampler_0": {
            "magFilter": 9729,
            "minFilter": 9987,
            "wrapS": 10497,
            "wrapT": 10497
        }
    },
    "scene": "defaultScene",
    "scenes": {
        "defaultScene": {
            "nodes": [
                "Camera-CameraNode",
                "Light-Directional_LightNode",
                "Geometry-AircraftNode"
            ]
        }
    },
    "shaders": {
        "aircraft0FS": {
            "type": 35632,
            "uri": "data:text/plain;base64,"
        },
        "aircraft0VS": {
            "type": 35633,
            "uri": "data:text/plain;base64,"
        }
    },
    "skins": {},
    "techniques": {
        "technique0": {
            "attributes": {
                "a_normal": "normal",
                "a_position": "position",
                "a_texcoord0": "texcoord0"
            },
            "parameters": {
                "diffuse": {
                    "type": 35678
                },
                "modelViewMatrix": {
                    "semantic": "MODELVIEW",
                    "type": 35676
                },
                "normal": {
                    "semantic": "NORMAL",
                    "type": 35665
                },
                "normalMatrix": {
                    "semantic": "MODELVIEWINVERSETRANSPOSE",
                    "type": 35675
                },
                "position": {
                    "semantic": "POSITION",
                    "type": 35665
                },
                "projectionMatrix": {
                    "semantic": "PROJECTION",
                    "type": 35676
                },
                "shininess": {
                    "type": 5126
                },
                "specular": {
                    "type": 35678
                },
                "texcoord0": {
                    "semantic": "TEXCOORD_0",
                    "type": 35664
                }
            },
            "program": "program_0",
            "states": {
                "enable": [
                    2929,
                    2884
                ]
            },
            "uniforms": {
                "u_diffuse": "diffuse",
                "u_modelViewMatrix": "modelViewMatrix",
                "u_normalMatrix": "normalMatrix",
                "u_projectionMatrix": "projectionMatrix",
                "u_shininess": "shininess",
                "u_specular": "specular"
            }
        }
    },
    "textures": {
        "texture_Image0001": {
            "format": 6408,
            "internalFormat": 6408,
            "sampler": "sampler_0",
            "source": "Image0001",
            "target": 3553,
            "type": 5121
        },
        "texture_Image0003": {
            "format": 6408,
            "internalFormat": 6408,
            "sampler": "sampler_0",
            "source": "Image0003",
            "target": 3553,
            "type": 5121
        }
    }
}