{
    "accessors": {
        "accessor_16": {
            "bufferView": "bufferView_50",
            "byteOffset": 49122,
            "byteStride": 0,
            "componentType": 5123,
            "count": 27906,
            "type": "SCALAR"
        },
        "accessor_18": {
            "bufferView": "bufferView_51",
            "byteOffset": 589464,
            "byteStride": 12,
            "componentType": 5126,
            "count": 27906,
            "max": [
                -0.0347142,
                0.142052,
                0.020828
            ],
            "min": [
                -0.458745,
                -0.104205,
                -1.90952
            ],
            "type": "VEC3"
        },
        "accessor_20": {
            "bufferView": "bufferView_51",
            "byteOffset": 924336,
            "byteStride": 12,
            "componentType": 5126,
            "count": 27906,
            "max": [
                1,
                1,
                1
            ],
            "min": [
                -1,
                -1,
                -1
            ],
            "type": "VEC3"
        },
        "accessor_36": {
            "bufferView": "bufferView_50",
            "byteOffset": 0,
            "byteStride": 0,
            "componentType": 5123,
            "count": 24561,
            "type": "SCALAR"
        },
        "accessor_38": {
            "bufferView": "bufferView_51",
            "byteOffset": 0,
            "byteStride": 12,
            "componentType": 5126,
            "count": 24561,
            "max": [
                0.0278653,
                0.610462,
                0.571647
            ],
            "min": [
                -0.0359818,
                -0.590501,
                -0.480063
            ],
            "type": "VEC3"
        },
        "accessor_40": {
            "bufferView": "bufferView_51",
            "byteOffset": 294732,
            "byteStride": 12,
            "componentType": 5126,
            "count": 24561,
            "max": [
                1,
                0.999738,
                0.995723
            ],
            "min": [
                -1,
                -0.999738,
                -0.999733
            ],
            "type": "VEC3"
        },
        "animAccessor_0": {
            "bufferView": "bufferView_49",
            "byteOffset": 0,
            "componentType": 5126,
            "count": 24,
            "type": "SCALAR"
        },
        "animAccessor_1": {
            "bufferView": "bufferView_49",
            "byteOffset": 96,
            "componentType": 5126,
            "count": 24,
            "type": "VEC3"
        },
        "animAccessor_2": {
            "bufferView": "bufferView_49",
            "byteOffset": 384,
            "componentType": 5126,
            "count": 24,
            "type": "VEC3"
        },
        "animAccessor_3": {
            "bufferView": "bufferView_49",
            "byteOffset": 672,
            "componentType": 5126,
            "count": 24,
            "type": "VEC4"
        },
        "animAccessor_4": {
            "bufferView": "bufferView_49",
            "byteOffset": 1056,
            "componentType": 5126,
            "count": 24,
            "type": "VEC3"
        },
        "animAccessor_5": {
            "bufferView": "bufferView_49",
            "byteOffset": 1344,
            "componentType": 5126,
            "count": 24,
            "type": "VEC3"
        },
        "animAccessor_6": {
            "bufferView": "bufferView_49",
            "byteOffset": 1632,
            "componentType": 5126,
            "count": 24,
            "type": "VEC4"
        }
    },
    "animations": {
        "animation_0": {
            "channels": [
                {
                    "sampler": "animation_0_scale_sampler",
                    "target": {
                        "id": "node-main",
                        "path": "scale"
                    }
                },
                {
                    "sampler": "animation_0_translation_sampler",
                    "target": {
                        "id": "node-main",
                        "path": "translation"
                    }
                },
                {
                    "sampler": "animation_0_rotation_sampler",
                    "target": {
                        "id": "node-main",
                        "path": "rotation"
                    }
                }
            ],
            "parameters": {
                "TIME": "animAccessor_0",
                "rotation": "animAccessor_3",
                "scale": "animAccessor_1",
                "translation": "animAccessor_2"
            },
            "samplers": {
                "animation_0_rotation_sampler": {
                    "input": "TIME",
                    "interpolation": "LINEAR",
                    "output": "rotation"
                },
                "animation_0_scale_sampler": {
                    "input": "TIME",
                    "interpolation": "LINEAR",
                    "output": "scale"
                },
                "animation_0_translation_sampler": {
                    "input": "TIME",
                    "interpolation": "LINEAR",
                    "output": "translation"
                }
            }
        },
        "animation_1": {
            "channels": [
                {
                    "sampler": "animation_1_scale_sampler",
                    "target": {
                        "id": "node-____001",
                        "path": "scale"
                    }
                },
                {
                    "sampler": "animation_1_translation_sampler",
                    "target": {
                        "id": "node-____001",
                        "path": "translation"
                    }
                },
                {
                    "sampler": "animation_1_rotation_sampler",
                    "target": {
                        "id": "node-____001",
                        "path": "rotation"
                    }
                }
            ],
            "parameters": {
                "TIME": "animAccessor_0",
                "rotation": "animAccessor_6",
                "scale": "animAccessor_4",
                "translation": "animAccessor_5"
            },
            "samplers": {
                "animation_1_rotation_sampler": {
                    "input": "TIME",
                    "interpolation": "LINEAR",
                    "output": "rotation"
                },
                "animation_1_scale_sampler": {
                    "input": "TIME",
                    "interpolation": "LINEAR",
                    "output": "scale"
                },
                "animation_1_translation_sampler": {
                    "input": "TIME",
                    "interpolation": "LINEAR",
                    "output": "translation"
                }
            }
        }
    },
    "asset": {
        "generator": "collada2gltf@cf6371beb0bdc18ba603378d5e40c966da53d385",
        "premultipliedAlpha": true,
        "profile": {
            "api": "WebGL",
            "version": "1.0.2"
        },
        "version": "1.0"
    },
    "bufferViews": {
        "bufferView_49": {
            "buffer": "\\2TestData\\WebGL测试数据\\模型\\donghua",
            "byteLength": 2016,
            "byteOffset": 0
        },
        "bufferView_50": {
            "buffer": "\\2TestData\\WebGL测试数据\\模型\\donghua",
            "byteLength": 104936,
            "byteOffset": 2016,
            "target": 34963
        },
        "bufferView_51": {
            "buffer": "\\2TestData\\WebGL测试数据\\模型\\donghua",
            "byteLength": 1259208,
            "byteOffset": 106952,
            "target": 34962
        }
    },
    "buffers": {
        "\\2TestData\\WebGL测试数据\\模型\\donghua": {
            "byteLength": 1366160,
            "type": "arraybuffer",
            "uri": "data:application/octet-stream;base64,"
        }
    },
    "materials": {
        "_1_-_Default": {
            "name": "_1_-_Default",
            "technique": "technique0",
            "values": {
                "ambient": [
                    0.588235,
                    0.588235,
                    0.588235,
                    1
                ],
                "diffuse": [
                    0.972549,
                    0.996078,
                    0.996078,
                    1
                ],
                "emission": [
                    0,
                    0,
                    0,
                    1
                ],
                "shininess": 0,
                "specular": [
                    0.9,
                    0.9,
                    0.9,
                    1
                ]
            }
        }
    },
    "meshes": {
        "geom-____001": {
            "name": "____001",
            "primitives": [
                {
                    "attributes": {
                        "NORMAL": "accessor_40",
                        "POSITION": "accessor_38"
                    },
                    "indices": "accessor_36",
                    "material": "_1_-_Default",
                    "mode": 4
                }
            ]
        },
        "geom-main": {
            "name": "main",
            "primitives": [
                {
                    "attributes": {
                        "NORMAL": "accessor_20",
                        "POSITION": "accessor_18"
                    },
                    "indices": "accessor_16",
                    "material": "_1_-_Default",
                    "mode": 4
                }
            ]
        }
    },
    "nodes": {
        "node-____001": {
            "children": [
                "node_3"
            ],
            "name": "____001",
            "rotation": [
                -2.38497e-008,
                0,
                0,
                1
            ],
            "scale": [
                1,
                1,
                1
            ],
            "translation": [
                0.0329496,
                0.0042948,
                1.90471
            ]
        },
        "node-main": {
            "children": [],
            "meshes": [
                "geom-main"
            ],
            "name": "main",
            "rotation": [
                0,
                0,
                0,
                1
            ],
            "scale": [
                1,
                1,
                1
            ],
            "translation": [
                0.0110598,
                0,
                2.02737
            ]
        },
        "node_0": {
            "children": [],
            "matrix": [
                1,
                0,
                0,
                0,
                0,
                1,
                0,
                0,
                0,
                0,
                1,
                0,
                0,
                0,
                0,
                1
            ],
            "name": "EnvironmentAmbientLight"
        },
        "node_3": {
            "children": [],
            "matrix": [
                1,
                0,
                0,
                0,
                0,
                1,
                0,
                0,
                0,
                0,
                1,
                0,
                -0.0168932,
                -0.00998053,
                0.118763,
                1
            ],
            "meshes": [
                "geom-____001"
            ],
            "name": ""
        },
        "node_4": {
            "children": [
                "node_0",
                "node-main",
                "node-____001"
            ],
            "matrix": [
                1,
                0,
                0,
                0,
                0,
                0,
                -1,
                0,
                0,
                1,
                0,
                0,
                0,
                0,
                0,
                1
            ],
            "name": "Y_UP_Transform"
        }
    },
    "programs": {
        "program_0": {
            "attributes": [
                "a_normal",
                "a_position"
            ],
            "fragmentShader": "\\2TestData\\WebGL测试数据\\模型\\donghua0FS",
            "vertexShader": "\\2TestData\\WebGL测试数据\\模型\\donghua0VS"
        }
    },
    "scene": "defaultScene",
    "scenes": {
        "defaultScene": {
            "nodes": [
                "node_4"
            ]
        }
    },
    "shaders": {
        "\\2TestData\\WebGL测试数据\\模型\\donghua0FS": {
            "type": 35632,
            "uri": "data:text/plain;base64,"
        },
        "\\2TestData\\WebGL测试数据\\模型\\donghua0VS": {
            "type": 35633,
            "uri": "data:text/plain;base64,"
        }
    },
    "skins": {},
    "techniques": {
        "technique0": {
            "attributes": {
                "a_normal": "normal",
                "a_position": "position"
            },
            "parameters": {
                "ambient": {
                    "type": 35666
                },
                "diffuse": {
                    "type": 35666
                },
                "emission": {
                    "type": 35666
                },
                "modelViewMatrix": {
                    "semantic": "MODELVIEW",
                    "type": 35676
                },
                "normal": {
                    "semantic": "NORMAL",
                    "type": 35665
                },
                "normalMatrix": {
                    "semantic": "MODELVIEWINVERSETRANSPOSE",
                    "type": 35675
                },
                "position": {
                    "semantic": "POSITION",
                    "type": 35665
                },
                "projectionMatrix": {
                    "semantic": "PROJECTION",
                    "type": 35676
                },
                "shininess": {
                    "type": 5126
                },
                "specular": {
                    "type": 35666
                }
            },
            "program": "program_0",
            "states": {
                "enable": [
                    2929,
                    2884
                ]
            },
            "uniforms": {
                "u_ambient": "ambient",
                "u_diffuse": "diffuse",
                "u_emission": "emission",
                "u_modelViewMatrix": "modelViewMatrix",
                "u_normalMatrix": "normalMatrix",
                "u_projectionMatrix": "projectionMatrix",
                "u_shininess": "shininess",
                "u_specular": "specular"
            }
        }
    }
}