{
  "accessors": [
    {
      "name": "Box01_1_0_positions",
      "componentType": 5126,
      "count": 5426,
      "min": [
        -0.10649300366640091,
        0.000003999999989900971,
        -0.09710200130939484
      ],
      "max": [
        0.10005500167608261,
        0.7248950004577637,
        0.13875199854373932
      ],
      "type": "VEC3",
      "bufferView": 0,
      "byteOffset": 0
    },
    {
      "name": "Box01_1_0_normals",
      "componentType": 5126,
      "count": 5426,
      "min": [
        -0.9990053176879883,
        -1,
        -0.9987215399742126
      ],
      "max": [
        0.9988136291503906,
        1,
        0.9987202882766724
      ],
      "type": "VEC3",
      "bufferView": 1,
      "byteOffset": 0
    },
    {
      "name": "Box01_1_0_texcoords",
      "componentType": 5126,
      "count": 5426,
      "min": [
        -1.0423909425735474,
        -3.124458074569702
      ],
      "max": [
        2.1277170181274414,
        4.08919095993042
      ],
      "type": "VEC2",
      "bufferView": 2,
      "byteOffset": 0
    },
    {
      "name": "Box01_1_0_indices",
      "componentType": 5123,
      "count": 13842,
      "min": [
        0
      ],
      "max": [
        5425
      ],
      "type": "SCALAR",
      "bufferView": 3,
      "byteOffset": 0
    },
    {
      "name": "Box01_1_1_positions",
      "componentType": 5126,
      "count": 1148,
      "min": [
        -0.05601799860596657,
        0.4535199999809265,
        -0.18679100275039673
      ],
      "max": [
        0.13117800652980804,
        0.6420360207557678,
        0.06377000361680984
      ],
      "type": "VEC3",
      "bufferView": 0,
      "byteOffset": 65112
    },
    {
      "name": "Box01_1_1_normals",
      "componentType": 5126,
      "count": 1148,
      "min": [
        -0.9982745051383972,
        -0.9988537430763245,
        -0.9954131245613098
      ],
      "max": [
        0.9983617067337036,
        0.9981701970100403,
        0.9966800212860107
      ],
      "type": "VEC3",
      "bufferView": 1,
      "byteOffset": 65112
    },
    {
      "name": "Box01_1_1_texcoords",
      "componentType": 5126,
      "count": 1148,
      "min": [
        -1.0883779525756836,
        -2.295867919921875
      ],
      "max": [
        2.0813980102539062,
        1.3779000043869019
      ],
      "type": "VEC2",
      "bufferView": 2,
      "byteOffset": 43408
    },
    {
      "name": "Box01_1_1_indices",
      "componentType": 5123,
      "count": 3468,
      "min": [
        0
      ],
      "max": [
        1147
      ],
      "type": "SCALAR",
      "bufferView": 3,
      "byteOffset": 27684
    },
    {
      "name": "Box01_1_2_positions",
      "componentType": 5126,
      "count": 96,
      "min": [
        -0.04563499987125397,
        0.5878469944000244,
        -0.02134699933230877
      ],
      "max": [
        -0.028232000768184662,
        0.6283149719238281,
        0.015755999833345413
      ],
      "type": "VEC3",
      "bufferView": 0,
      "byteOffset": 78888
    },
    {
      "name": "Box01_1_2_normals",
      "componentType": 5126,
      "count": 96,
      "min": [
        -0.912001371383667,
        -0.9945277571678162,
        -0.8921791315078735
      ],
      "max": [
        0.9120283722877502,
        0.9945030212402344,
        0.912962794303894
      ],
      "type": "VEC3",
      "bufferView": 1,
      "byteOffset": 78888
    },
    {
      "name": "Box01_1_2_texcoords",
      "componentType": 5126,
      "count": 96,
      "min": [
        -0.06565900146961212,
        -2.1586530208587646
      ],
      "max": [
        1.0797710418701172,
        0.9987480044364929
      ],
      "type": "VEC2",
      "bufferView": 2,
      "byteOffset": 52592
    },
    {
      "name": "Box01_1_2_indices",
      "componentType": 5123,
      "count": 180,
      "min": [
        0
      ],
      "max": [
        95
      ],
      "type": "SCALAR",
      "bufferView": 3,
      "byteOffset": 34620
    },
    {
      "name": "Box01_1_3_positions",
      "componentType": 5126,
      "count": 1763,
      "min": [
        -0.04915200173854828,
        0.1274390071630478,
        -0.08170600235462189
      ],
      "max": [
        0.11625099927186966,
        0.6733319759368896,
        0.06565699726343155
      ],
      "type": "VEC3",
      "bufferView": 0,
      "byteOffset": 80040
    },
    {
      "name": "Box01_1_3_normals",
      "componentType": 5126,
      "count": 1763,
      "min": [
        -0.9995191097259521,
        -1,
        -0.9995183348655701
      ],
      "max": [
        0.999514639377594,
        1,
        1
      ],
      "type": "VEC3",
      "bufferView": 1,
      "byteOffset": 80040
    },
    {
      "name": "Box01_1_3_texcoords",
      "componentType": 5126,
      "count": 1763,
      "min": [
        -0.3270159959793091,
        -2.2284529209136963
      ],
      "max": [
        1.327015995979309,
        3.229464054107666
      ],
      "type": "VEC2",
      "bufferView": 2,
      "byteOffset": 53360
    },
    {
      "name": "Box01_1_3_indices",
      "componentType": 5123,
      "count": 3372,
      "min": [
        0
      ],
      "max": [
        1762
      ],
      "type": "SCALAR",
      "bufferView": 3,
      "byteOffset": 34980
    }
  ],
  "asset": {
    "generator": "obj2gltf",
    "version": "2.0"
  },
  "buffers": [
    {
      "name": "fireExtinguisher",
      "byteLength": 311580,
      "uri": "data:application/octet-stream;base64,"
    }
  ],
  "bufferViews": [
    {
      "name": "bufferView_0",
      "buffer": 0,
      "byteLength": 101196,
      "byteOffset": 0,
      "byteStride": 12,
      "target": 34962
    },
    {
      "name": "bufferView_1",
      "buffer": 0,
      "byteLength": 101196,
      "byteOffset": 101196,
      "byteStride": 12,
      "target": 34962
    },
    {
      "name": "bufferView_2",
      "buffer": 0,
      "byteLength": 67464,
      "byteOffset": 202392,
      "byteStride": 8,
      "target": 34962
    },
    {
      "name": "bufferView_3",
      "buffer": 0,
      "byteLength": 41724,
      "byteOffset": 269856,
      "target": 34963
    }
  ],
  "materials": [
    {
      "name": "Material__45",
      "pbrMetallicRoughness": {
        "baseColorFactor": [
          0.6,
          0.6,
          0.6,
          1
        ],
        "metallicFactor": 0,
        "roughnessFactor": 1
      },
      "emissiveFactor": [
        0,
        0,
        0
      ],
      "alphaMode": "OPAQUE",
      "doubleSided": false
    },
    {
      "name": "Material__48",
      "pbrMetallicRoughness": {
        "baseColorFactor": [
          0.6,
          0.6,
          0.6,
          1
        ],
        "metallicFactor": 0,
        "roughnessFactor": 1
      },
      "emissiveFactor": [
        0,
        0,
        0
      ],
      "alphaMode": "OPAQUE",
      "doubleSided": false
    },
    {
      "name": "Material__105",
      "pbrMetallicRoughness": {
        "baseColorFactor": [
          0.6,
          0.6,
          0.6,
          1
        ],
        "metallicFactor": 0,
        "roughnessFactor": 1
      },
      "emissiveFactor": [
        0,
        0,
        0
      ],
      "alphaMode": "OPAQUE",
      "doubleSided": false
    },
    {
      "name": "Material__47",
      "pbrMetallicRoughness": {
        "baseColorFactor": [
          0.6,
          0.6,
          0.6,
          1
        ],
        "metallicFactor": 0,
        "roughnessFactor": 1
      },
      "emissiveFactor": [
        0,
        0,
        0
      ],
      "alphaMode": "OPAQUE",
      "doubleSided": false
    }
  ],
  "meshes": [
    {
      "name": "Box01_1",
      "primitives": [
        {
          "attributes": {
            "POSITION": 0,
            "NORMAL": 1,
            "TEXCOORD_0": 2
          },
          "indices": 3,
          "material": 0,
          "mode": 4
        },
        {
          "attributes": {
            "POSITION": 4,
            "NORMAL": 5,
            "TEXCOORD_0": 6
          },
          "indices": 7,
          "material": 1,
          "mode": 4
        },
        {
          "attributes": {
            "POSITION": 8,
            "NORMAL": 9,
            "TEXCOORD_0": 10
          },
          "indices": 11,
          "material": 2,
          "mode": 4
        },
        {
          "attributes": {
            "POSITION": 12,
            "NORMAL": 13,
            "TEXCOORD_0": 14
          },
          "indices": 15,
          "material": 3,
          "mode": 4
        }
      ]
    }
  ],
  "nodes": [
    {
      "name": "Box01",
      "mesh": 0
    }
  ],
  "scene": 0,
  "scenes": [
    {
      "nodes": [
        0
      ]
    }
  ]
}
