<?xml version="1.0" encoding="UTF-8" ?>
<!DOCTYPE svg PUBLIC "-//W3C//DTD SVG 1.1//EN" "http://www.w3.org/Graphics/SVG/1.1/DTD/svg11.dtd">
<svg width="32pt" height="32pt" viewBox="0 0 32 32" version="1.1" xmlns="http://www.w3.org/2000/svg">
<g id="#c5c5c5cd">
<path fill="#c5c5c5" opacity="0.80" d=" M 0.68 13.11 C 2.03 6.22 8.21 1.02 15.10 0.24 C 23.02 -0.08 30.75 6.19 31.57 14.19 C 33.35 24.85 21.31 35.09 11.16 30.86 C 7.82 29.88 5.33 27.40 3.08 24.87 C 1.26 21.30 -0.68 17.17 0.68 13.11 M 3.17 10.36 C -0.16 17.72 4.10 27.12 11.86 29.36 C 20.01 32.32 29.76 25.77 29.99 17.10 C 30.74 10.64 26.07 4.23 19.84 2.61 C 13.32 0.42 6.07 4.38 3.17 10.36 Z" />
</g>
<g id="#c4c4c4dd">
<path fill="#c4c4c4" opacity="0.87" d=" M 12.05 3.95 C 14.75 4.19 17.45 4.31 20.16 4.21 C 18.21 6.07 17.72 9.47 15.25 10.57 C 14.90 8.05 13.34 6.04 12.05 3.95 Z" />
</g>
<g id="#cccccce6">
<path fill="#cccccc" opacity="0.90" d=" M 4.24 12.17 C 6.57 13.60 8.96 14.93 11.27 16.39 C 8.72 17.30 6.45 18.82 3.91 19.71 C 4.60 17.24 4.60 14.70 4.24 12.17 Z" />
</g>
<g id="#cdcdcde7">
<path fill="#cdcdcd" opacity="0.91" d=" M 20.54 16.39 C 22.91 15.00 25.31 13.67 27.49 12.00 C 27.22 14.65 27.34 17.31 27.83 19.93 C 25.47 18.60 23.07 17.36 20.54 16.39 Z" />
</g>
<g id="#d3d3d3ed">
<path fill="#d3d3d3" opacity="0.93" d=" M 15.59 20.73 C 17.41 22.63 18.34 25.19 20.04 27.20 C 17.37 27.03 14.69 27.14 12.04 27.42 C 13.57 25.39 14.82 23.17 15.59 20.73 Z" />
</g>
</svg>
