<?xml version="1.0" encoding="UTF-8" ?>
<!DOCTYPE svg PUBLIC "-//W3C//DTD SVG 1.1//EN" "http://www.w3.org/Graphics/SVG/1.1/DTD/svg11.dtd">
<svg width="32pt" height="32pt" viewBox="0 0 64 64" version="1.1" xmlns="http://www.w3.org/2000/svg">
<g id="#ffffffff">
<path fill="#ffffff" opacity="0.60" d=" M 29.13 7.96 C 29.17 5.88 29.08 2.48 32.04 2.54 C 34.94 2.59 34.76 5.94 34.85 7.98 C 45.66 9.33 54.63 18.32 56.00 29.13 C 58.07 29.20 61.48 29.07 61.43 32.03 C 61.40 34.93 58.04 34.76 56.00 34.85 C 54.62 45.65 45.66 54.66 34.83 55.97 C 34.75 57.99 34.96 61.43 32.04 61.40 C 29.07 61.54 29.18 58.05 29.13 56.01 C 18.32 54.62 9.33 45.66 7.96 34.84 C 5.91 34.77 2.52 34.92 2.55 31.98 C 2.54 29.06 5.93 29.21 7.98 29.12 C 9.37 18.33 18.32 9.34 29.13 7.96 M 25.39 14.54 C 19.24 16.79 14.52 22.53 13.61 29.03 C 12.51 35.55 15.16 42.55 20.40 46.61 C 25.82 50.93 33.69 51.81 39.94 48.82 C 45.43 46.33 49.45 40.95 50.34 34.99 C 51.51 28.25 48.63 20.95 43.04 16.97 C 38.06 13.25 31.20 12.39 25.39 14.54 Z" />
<path fill="#ffffff" opacity="0.60" d=" M 29.49 23.41 C 30.24 21.34 33.55 21.46 34.35 23.45 C 34.84 25.40 34.60 27.44 34.67 29.43 C 37.19 29.71 41.59 28.35 42.20 31.95 C 42.34 35.59 38.01 35.02 35.60 34.92 C 34.37 36.83 34.86 39.16 34.23 41.24 C 33.04 43.39 29.11 42.61 29.25 40.01 C 28.83 38.43 29.71 36.13 27.95 35.18 C 26.38 34.95 24.78 35.01 23.22 34.68 C 21.20 34.04 21.00 30.78 22.90 29.86 C 24.88 29.27 26.98 29.35 29.02 29.11 C 28.98 27.20 28.91 25.25 29.49 23.41 Z" />
</g>
</svg>
