<?xml version="1.0" encoding="utf-8"?>
<!-- Generator: Adobe Illustrator 21.0.0, SVG Export Plug-In . SVG Version: 6.00 Build 0)  -->
<svg version="1.1" id="图层_1" xmlns="http://www.w3.org/2000/svg" xmlns:xlink="http://www.w3.org/1999/xlink" x="0px" y="0px"
	 viewBox="0 0 32 32" style="enable-background:new 0 0 32 32;" xml:space="preserve">
<style type="text/css">
	.st0{fill:none;stroke:#FFFFFF;stroke-miterlimit:10;}
	.st1{fill:none;stroke:#FFFFFF;stroke-width:2;stroke-miterlimit:10;}
	.st2{fill:#003B94;}
	.st3{fill:#DF2B27;}
</style>
<circle class="st0" cx="16" cy="16" r="11"/>
<path class="st0" d="M16,26.5v-21c0,0-8,2.6-8,10.5S16,26.5,16,26.5z"/>
<path class="st0" d="M8,8.5c1.8,1.5,4.3,2.8,8,2.8c3.7,0,6.2-1.3,8-2.8"/>
<path class="st0" d="M24,23.5c-1.8-1.5-4.3-2.8-8-2.8c-3.7,0-6.2,1.3-8,2.8"/>
<path class="st0" d="M16,26.5v-21c0,0,8,2.6,8,10.5S16,26.5,16,26.5z"/>
<line class="st0" x1="4" y1="16" x2="28" y2="16"/>
<path class="st1" d="M11.8,5.8c-4.9-1.4-9-1-10.4,1.5C-0.6,11,4.3,17.9,12.3,22.7s16.2,5.7,18.3,2c1.3-2.4-0.2-6-3.5-9.6
	c-0.2-0.2-0.3-0.4-0.5-0.6"/>
<circle class="st2" cx="11.4" cy="5" r="4"/>
<circle class="st3" cx="20.5" cy="26.5" r="4"/>
</svg>
